<svg xmlns="http://www.w3.org/2000/svg" viewBox="700 0 226 230" width="226" height="230">
    <path d="M 806.9,47.6 L 807.2,47.0 L 807.5,46.4 L 807.8,45.8 L 808.1,45.2 L 808.4,44.7 L 808.7,44.1 L 809.0,43.6 L 809.3,43.0 L 809.6,42.5 L 809.9,42.0 L 810.2,41.5 L 810.6,41.0 L 810.9,40.5 L 811.2,40.0 L 811.6,39.5 L 811.9,39.0 L 812.2,38.6 L 812.6,38.1 L 812.9,37.7 L 813.3,37.3 L 813.6,36.8 L 814.0,36.4 L 814.3,36.0 L 814.7,35.6 L 815.0,35.2 L 815.4,34.8 L 815.8,34.5 L 816.1,34.1 L 816.5,33.8 L 816.9,33.4 L 817.2,33.1 L 817.6,32.8 L 818.0,32.4 L 818.4,32.1 L 818.8,31.8 L 819.2,31.5 L 819.5,31.3 L 819.9,31.0 L 820.3,30.7 L 820.7,30.5 L 821.1,30.2 L 821.5,30.0 L 821.9,29.8 L 822.3,29.5 L 822.7,29.3 L 823.1,29.1 L 823.6,29.0 L 824.0,28.8 L 824.4,28.6 L 824.8,28.5 L 825.2,28.3 L 825.6,28.2 L 826.0,28.0 L 826.5,27.9 L 826.9,27.8 L 827.3,27.7 L 827.7,27.6 L 828.2,27.5 L 828.6,27.5 L 829.0,27.4 L 829.4,27.4 L 829.9,27.3 L 830.3,27.3 L 830.7,27.3 L 831.2,27.2 L 831.6,27.2 L 832.0,27.3 L 832.5,27.3 L 832.9,27.3 L 833.3,27.3 L 833.8,27.4 L 834.2,27.5 L 834.7,27.5 L 835.1,27.6 L 835.5,27.7 L 836.0,27.8 L 836.4,27.9 L 836.9,28.0 L 837.3,28.2 L 837.7,28.3 L 838.2,28.5 L 838.6,28.6 L 839.1,28.8 L 839.5,29.0 L 840.0,29.2 L 840.4,29.4 L 840.9,29.6 L 841.3,29.8 L 841.7,30.1 L 842.2,30.3 L 842.6,30.6 L 843.1,30.9 L 843.5,31.1 L 844.1,31.5 L 844.6,31.8 L 845.1,32.2 L 845.6,32.6 L 846.2,33.0 L 846.7,33.3 L 847.2,33.7 L 847.7,34.1 L 848.2,34.5 L 848.7,34.9 L 849.2,35.4 L 849.7,35.8 L 850.2,36.2 L 850.6,36.6 L 851.1,37.1 L 851.6,37.5 L 852.1,38.0 L 852.5,38.4 L 853.0,38.9 L 853.4,39.4 L 853.9,39.8 L 854.3,40.3 L 854.8,40.8 L 855.2,41.3 L 855.6,41.8 L 856.1,42.3 L 856.5,42.8 L 856.9,43.3 L 857.3,43.8 L 857.7,44.3 L 858.1,44.8 L 858.5,45.4 L 858.9,45.9 L 859.3,46.4 L 859.7,47.0 L 860.1,47.5 L 860.4,48.1 L 860.8,48.6 L 861.2,49.2 L 861.5,49.8 L 861.9,50.3 L 862.2,50.9 L 862.6,51.5 L 862.9,52.1 L 863.3,52.6 L 863.6,53.2 L 863.9,53.8 L 864.3,54.4 L 864.6,55.0 L 864.9,55.6 L 865.2,56.2 L 865.5,56.8 L 865.8,57.5 L 866.1,58.1 L 866.4,58.7 L 866.7,59.3 L 866.9,60.0 L 867.2,60.6 L 867.5,61.2 L 867.7,61.9 L 868.0,62.5 L 868.3,63.2 L 868.5,63.8 L 868.7,64.5 L 869.0,65.1 L 869.2,65.8 L 869.4,66.4 L 869.7,67.1 L 869.9,67.8 L 870.1,68.4 L 870.3,69.1 L 870.5,69.8 L 870.7,70.5 L 870.9,71.1 L 871.1,71.8 L 871.3,72.5 L 871.4,73.2 L 871.6,73.9 L 871.8,74.6 L 871.9,75.3 L 872.1,75.9 L 872.2,76.6 L 872.4,77.3 L 872.5,78.0 L 872.7,78.7 L 872.8,79.4 L 872.9,80.1 L 873.0,80.9 L 873.1,81.6 L 873.2,82.3 L 873.3,83.0 L 873.4,83.7 L 873.5,84.4 L 873.6,85.1 L 873.7,85.8 L 873.8,86.6 L 873.8,87.3 L 873.9,88.0 L 874.0,88.7 L 874.0,89.4 L 874.1,90.2 L 874.1,90.9 L 874.1,91.6 L 874.2,92.3 L 874.2,93.1 L 874.2,93.8 L 874.2,94.5 L 874.2,95.2 L 874.2,96.0 L 874.2,96.7 L 874.2,97.4 L 874.2,98.1 L 874.2,98.9 L 874.2,99.6 L 874.1,100.3 L 874.1,101.1 L 874.0,101.8 L 874.0,102.5 L 873.9,103.2 L 873.9,104.0 L 873.8,104.8 L 873.7,105.7 L 873.6,106.6 L 873.5,107.4 L 873.4,108.3 L 873.3,109.1 L 873.2,110.0 L 873.0,110.8 L 872.9,111.7 L 872.7,112.5 L 872.5,113.4 L 872.4,114.2 L 872.2,115.1 L 872.0,115.9 L 871.8,116.7 L 871.6,117.6 L 871.3,118.4 L 871.1,119.2 L 870.9,120.0 L 870.6,120.9 L 870.4,121.7 L 870.1,122.5 L 869.8,123.3 L 869.5,124.1 L 869.2,124.9 L 868.9,125.8 L 868.6,126.6 L 868.3,127.4 L 868.0,128.2 L 867.6,129.0 L 867.3,129.8 L 866.9,130.5 L 866.6,131.3 L 866.2,132.1 L 865.8,132.9 L 865.4,133.7 L 865.0,134.5 L 864.6,135.2 L 864.2,136.0 L 863.8,136.8 L 863.4,137.6 L 862.9,138.3 L 862.5,139.1 L 862.0,139.8 L 861.6,140.6 L 861.1,141.4 L 860.6,142.1 L 860.1,142.9 L 859.6,143.6 L 859.1,144.4 L 858.6,145.1 L 858.1,145.8 L 857.6,146.6 L 857.1,147.3 L 856.5,148.0 L 856.0,148.8 L 855.4,149.5 L 854.8,150.2 L 854.3,150.9 L 853.7,151.6 L 853.1,152.4 L 852.5,153.1 L 851.9,153.8 L 851.3,154.5 L 850.7,155.2 L 850.1,155.9 L 849.4,156.6 L 848.8,157.3 L 848.2,158.0 L 847.5,158.6 L 846.8,159.3 L 846.2,160.0 L 845.5,160.7 L 844.8,161.4 L 844.1,162.0 L 843.4,162.7 L 842.7,163.4 L 842.0,164.0 L 841.3,164.7 L 840.6,165.4 L 839.9,166.0 L 839.1,166.7 L 838.4,167.3 L 837.6,168.0 L 836.9,168.6 L 836.1,169.2 L 835.3,169.9 L 834.6,170.5 L 833.8,171.1 L 833.0,171.8 L 832.2,172.4 L 831.4,173.0 L 830.6,173.6" pathLength="100" stroke="#FFFFFF" stroke-opacity="0.92" stroke-width="2.9" fill="none" stroke-linecap="round"/>
    <path d="M 778.6,46.6 L 778.2,46.2 L 777.8,45.7 L 777.4,45.3 L 777.0,44.8 L 776.6,44.4 L 776.2,44.0 L 775.8,43.6 L 775.4,43.2 L 775.0,42.8 L 774.6,42.4 L 774.2,42.1 L 773.8,41.7 L 773.3,41.3 L 772.9,41.0 L 772.5,40.7 L 772.1,40.3 L 771.7,40.0 L 771.3,39.7 L 770.9,39.4 L 770.4,39.1 L 770.0,38.9 L 769.6,38.6 L 769.2,38.3 L 768.8,38.1 L 768.3,37.8 L 767.9,37.6 L 767.5,37.4 L 767.1,37.2 L 766.6,36.9 L 766.2,36.8 L 765.8,36.6 L 765.3,36.4 L 764.9,36.2 L 764.5,36.1 L 764.1,35.9 L 763.6,35.8 L 763.2,35.6 L 762.8,35.5 L 762.3,35.4 L 761.9,35.3 L 761.5,35.2 L 761.1,35.1 L 760.6,35.1 L 760.2,35.0 L 759.8,34.9 L 759.4,34.9 L 758.9,34.9 L 758.5,34.8 L 758.1,34.8 L 757.6,34.8 L 757.2,34.8 L 756.8,34.8 L 756.4,34.9 L 755.9,34.9 L 755.5,34.9 L 755.1,35.0 L 754.7,35.0 L 754.3,35.1 L 753.8,35.2 L 753.4,35.3 L 753.0,35.4 L 752.6,35.5 L 752.2,35.6 L 751.7,35.8 L 751.3,35.9 L 750.9,36.1 L 750.5,36.2 L 750.1,36.4 L 749.7,36.6 L 749.3,36.8 L 748.9,37.0 L 748.5,37.2 L 748.1,37.4 L 747.7,37.7 L 747.3,37.9 L 746.9,38.2 L 746.5,38.4 L 746.1,38.7 L 745.7,39.0 L 745.3,39.3 L 744.9,39.6 L 744.5,39.9 L 744.1,40.2 L 743.7,40.6 L 743.4,40.9 L 742.9,41.4 L 742.4,41.8 L 742.0,42.2 L 741.5,42.7 L 741.1,43.2 L 740.7,43.6 L 740.2,44.1 L 739.8,44.6 L 739.4,45.0 L 739.0,45.5 L 738.6,46.0 L 738.2,46.5 L 737.8,47.0 L 737.4,47.5 L 737.0,48.0 L 736.6,48.5 L 736.2,49.0 L 735.9,49.5 L 735.5,50.1 L 735.1,50.6 L 734.8,51.1 L 734.4,51.7 L 734.1,52.2 L 733.8,52.8 L 733.4,53.3 L 733.1,53.9 L 732.8,54.4 L 732.5,55.0 L 732.1,55.6 L 731.8,56.1 L 731.5,56.7 L 731.2,57.3 L 730.9,57.9 L 730.7,58.5 L 730.4,59.1 L 730.1,59.7 L 729.8,60.3 L 729.6,60.9 L 729.3,61.5 L 729.1,62.1 L 728.8,62.7 L 728.6,63.3 L 728.3,63.9 L 728.1,64.5 L 727.9,65.2 L 727.6,65.8 L 727.4,66.4 L 727.2,67.1 L 727.0,67.7 L 726.8,68.3 L 726.6,69.0 L 726.4,69.6 L 726.2,70.3 L 726.1,70.9 L 725.9,71.6 L 725.7,72.2 L 725.6,72.9 L 725.4,73.6 L 725.3,74.2 L 725.1,74.9 L 725.0,75.6 L 724.8,76.2 L 724.7,76.9 L 724.6,77.6 L 724.5,78.2 L 724.4,78.9 L 724.2,79.6 L 724.1,80.3 L 724.0,81.0 L 724.0,81.7 L 723.9,82.3 L 723.8,83.0 L 723.7,83.7 L 723.6,84.4 L 723.6,85.1 L 723.5,85.8 L 723.5,86.5 L 723.4,87.2 L 723.4,87.9 L 723.3,88.6 L 723.3,89.3 L 723.3,90.0 L 723.3,90.7 L 723.2,91.4 L 723.2,92.1 L 723.2,92.8 L 723.2,93.5 L 723.2,94.2 L 723.3,94.9 L 723.3,95.6 L 723.3,96.3 L 723.3,97.0 L 723.4,97.7 L 723.4,98.5 L 723.4,99.2 L 723.5,99.9 L 723.5,100.6 L 723.6,101.3 L 723.7,102.0 L 723.7,102.7 L 723.8,103.4 L 723.9,104.1 L 724.0,104.8 L 724.1,105.5 L 724.2,106.2 L 724.3,107.0 L 724.4,107.7 L 724.5,108.4 L 724.6,109.1 L 724.8,109.8 L 724.9,110.5 L 725.0,111.2 L 725.2,111.9 L 725.3,112.6 L 725.5,113.3 L 725.7,114.0 L 725.8,114.7 L 726.0,115.4 L 726.2,116.1 L 726.4,116.8 L 726.6,117.6 L 726.8,118.4 L 727.0,119.3 L 727.3,120.1 L 727.6,120.9 L 727.8,121.7 L 728.1,122.5 L 728.4,123.3 L 728.7,124.1 L 729.0,124.9 L 729.3,125.7 L 729.6,126.5 L 729.9,127.2 L 730.2,128.0 L 730.6,128.8 L 730.9,129.6 L 731.3,130.3 L 731.7,131.1 L 732.0,131.9 L 732.4,132.6 L 732.8,133.4 L 733.2,134.1 L 733.6,134.9 L 734.0,135.6 L 734.5,136.3 L 734.9,137.1 L 735.3,137.8 L 735.8,138.5 L 736.2,139.2 L 736.7,139.9 L 737.2,140.7 L 737.6,141.4 L 738.1,142.1 L 738.6,142.8 L 739.1,143.5 L 739.6,144.2 L 740.2,144.8 L 740.7,145.5 L 741.2,146.2 L 741.8,146.9 L 742.3,147.6 L 742.9,148.2 L 743.4,148.9 L 744.0,149.6 L 744.6,150.2 L 745.2,150.9 L 745.7,151.5 L 746.3,152.2 L 747.0,152.8 L 747.6,153.4 L 748.2,154.1 L 748.8,154.7 L 749.4,155.3 L 750.1,155.9 L 750.7,156.5 L 751.4,157.2 L 752.1,157.8 L 752.7,158.4 L 753.4,159.0 L 754.1,159.6 L 754.8,160.2 L 755.5,160.7 L 756.2,161.3 L 756.9,161.9 L 757.6,162.5 L 758.3,163.1 L 759.1,163.6 L 759.8,164.2 L 760.6,164.8 L 761.3,165.3 L 762.1,165.9 L 762.8,166.4 L 763.6,166.9 L 764.4,167.5 L 765.2,168.0 L 765.9,168.6 L 766.7,169.1 L 767.5,169.6 L 768.3,170.1 L 769.2,170.6 L 770.0,171.1 L 770.8,171.7 L 771.6,172.2 L 772.5,172.7 L 773.3,173.1 L 774.2,173.6 L 775.0,174.1 L 775.9,174.6 L 776.8,175.1" pathLength="100" stroke="#FFFFFF" stroke-opacity="0.92" stroke-width="2.7" fill="none" stroke-linecap="round"/>
</svg>