<svg xmlns="http://www.w3.org/2000/svg" viewBox="700 0 226 230" width="226" height="230">
  <defs><filter id="gl" x="-40%" y="-40%" width="180%" height="180%"><feGaussianBlur stdDeviation="4"/></filter></defs>
    <path d="M 807.3,47.7 L 807.6,47.1 L 807.9,46.6 L 808.2,46.0 L 808.5,45.4 L 808.8,44.9 L 809.1,44.4 L 809.4,43.8 L 809.8,43.3 L 810.1,42.8 L 810.4,42.3 L 810.7,41.8 L 811.1,41.3 L 811.4,40.8 L 811.7,40.3 L 812.1,39.9 L 812.4,39.4 L 812.8,39.0 L 813.1,38.6 L 813.4,38.1 L 813.8,37.7 L 814.2,37.3 L 814.5,36.9 L 814.9,36.5 L 815.2,36.1 L 815.6,35.7 L 815.9,35.4 L 816.3,35.0 L 816.7,34.7 L 817.0,34.3 L 817.4,34.0 L 817.8,33.7 L 818.2,33.4 L 818.5,33.1 L 818.9,32.8 L 819.3,32.5 L 819.7,32.2 L 820.1,32.0 L 820.4,31.7 L 820.8,31.5 L 821.2,31.2 L 821.6,31.0 L 822.0,30.8 L 822.4,30.6 L 822.8,30.4 L 823.2,30.2 L 823.6,30.0 L 823.9,29.9 L 824.3,29.7 L 824.7,29.5 L 825.1,29.4 L 825.5,29.3 L 825.9,29.1 L 826.3,29.0 L 826.7,28.9 L 827.1,28.8 L 827.5,28.7 L 827.9,28.7 L 828.3,28.6 L 828.7,28.5 L 829.1,28.5 L 829.6,28.4 L 830.0,28.4 L 830.4,28.4 L 830.8,28.4 L 831.2,28.4 L 831.6,28.4 L 832.0,28.4 L 832.4,28.4 L 832.8,28.5 L 833.2,28.5 L 833.6,28.6 L 834.0,28.6 L 834.5,28.7 L 834.9,28.8 L 835.3,28.9 L 835.7,29.0 L 836.1,29.1 L 836.5,29.2 L 836.9,29.3 L 837.4,29.5 L 837.8,29.6 L 838.2,29.8 L 838.6,30.0 L 839.0,30.1 L 839.4,30.3 L 839.9,30.5 L 840.3,30.7 L 840.7,31.0 L 841.1,31.2 L 841.5,31.4 L 842.0,31.7 L 842.4,31.9 L 842.8,32.2 L 843.3,32.6 L 843.8,32.9 L 844.4,33.3 L 844.9,33.7 L 845.4,34.0 L 845.9,34.4 L 846.4,34.8 L 846.9,35.2 L 847.4,35.6 L 847.8,36.0 L 848.3,36.4 L 848.8,36.8 L 849.3,37.2 L 849.7,37.6 L 850.2,38.1 L 850.6,38.5 L 851.1,39.0 L 851.5,39.4 L 852.0,39.9 L 852.4,40.3 L 852.9,40.8 L 853.3,41.2 L 853.7,41.7 L 854.2,42.2 L 854.6,42.7 L 855.0,43.2 L 855.4,43.7 L 855.8,44.2 L 856.2,44.7 L 856.6,45.2 L 857.0,45.7 L 857.4,46.2 L 857.8,46.7 L 858.1,47.3 L 858.5,47.8 L 858.9,48.3 L 859.3,48.9 L 859.6,49.4 L 860.0,50.0 L 860.3,50.5 L 860.7,51.1 L 861.0,51.6 L 861.4,52.2 L 861.7,52.8 L 862.0,53.4 L 862.3,53.9 L 862.7,54.5 L 863.0,55.1 L 863.3,55.7 L 863.6,56.3 L 863.9,56.9 L 864.2,57.5 L 864.5,58.1 L 864.8,58.7 L 865.1,59.3 L 865.3,59.9 L 865.6,60.5 L 865.9,61.2 L 866.1,61.8 L 866.4,62.4 L 866.7,63.0 L 866.9,63.7 L 867.1,64.3 L 867.4,65.0 L 867.6,65.6 L 867.8,66.2 L 868.1,66.9 L 868.3,67.6 L 868.5,68.2 L 868.7,68.9 L 868.9,69.5 L 869.1,70.2 L 869.3,70.8 L 869.5,71.5 L 869.7,72.2 L 869.9,72.9 L 870.0,73.5 L 870.2,74.2 L 870.4,74.9 L 870.5,75.6 L 870.7,76.3 L 870.8,76.9 L 871.0,77.6 L 871.1,78.3 L 871.3,79.0 L 871.4,79.7 L 871.5,80.4 L 871.6,81.1 L 871.7,81.8 L 871.8,82.5 L 871.9,83.2 L 872.0,83.9 L 872.1,84.6 L 872.2,85.3 L 872.3,86.0 L 872.4,86.7 L 872.5,87.4 L 872.5,88.1 L 872.6,88.8 L 872.6,89.5 L 872.7,90.2 L 872.7,91.0 L 872.8,91.7 L 872.8,92.4 L 872.8,93.1 L 872.8,93.8 L 872.9,94.5 L 872.9,95.2 L 872.9,96.0 L 872.9,96.7 L 872.9,97.4 L 872.9,98.1 L 872.9,98.8 L 872.8,99.6 L 872.8,100.3 L 872.8,101.0 L 872.7,101.7 L 872.7,102.4 L 872.6,103.1 L 872.6,103.9 L 872.5,104.7 L 872.4,105.6 L 872.4,106.4 L 872.3,107.3 L 872.2,108.1 L 872.0,109.0 L 871.9,109.8 L 871.8,110.6 L 871.6,111.5 L 871.5,112.3 L 871.3,113.1 L 871.2,114.0 L 871.0,114.8 L 870.8,115.6 L 870.6,116.4 L 870.4,117.3 L 870.2,118.1 L 870.0,118.9 L 869.7,119.7 L 869.5,120.5 L 869.2,121.3 L 869.0,122.1 L 868.7,122.9 L 868.4,123.7 L 868.2,124.5 L 867.9,125.3 L 867.6,126.1 L 867.3,126.9 L 866.9,127.7 L 866.6,128.5 L 866.3,129.3 L 865.9,130.1 L 865.6,130.9 L 865.2,131.7 L 864.9,132.4 L 864.5,133.2 L 864.1,134.0 L 863.7,134.8 L 863.3,135.5 L 862.9,136.3 L 862.5,137.1 L 862.1,137.8 L 861.6,138.6 L 861.2,139.3 L 860.7,140.1 L 860.3,140.8 L 859.8,141.6 L 859.3,142.3 L 858.8,143.1 L 858.4,143.8 L 857.9,144.6 L 857.4,145.3 L 856.8,146.0 L 856.3,146.8 L 855.8,147.5 L 855.3,148.2 L 854.7,148.9 L 854.2,149.7 L 853.6,150.4 L 853.0,151.1 L 852.5,151.8 L 851.9,152.5 L 851.3,153.2 L 850.7,154.0 L 850.1,154.7 L 849.5,155.4 L 848.9,156.1 L 848.2,156.8 L 847.6,157.4 L 847.0,158.1 L 846.3,158.8 L 845.7,159.5 L 845.0,160.2 L 844.3,160.9 L 843.7,161.6 L 843.0,162.2 L 842.3,162.9 L 841.6,163.6 L 840.9,164.2 L 840.2,164.9 L 839.5,165.6 L 838.7,166.2 L 838.0,166.9 L 837.3,167.5 L 836.5,168.2 L 835.8,168.8 L 835.0,169.5 L 834.2,170.1 L 833.5,170.8 L 832.7,171.4 L 831.9,172.1 L 831.1,172.7 L 830.4,173.3 L 830.8,173.9 L 831.6,173.3 L 832.5,172.7 L 833.3,172.1 L 834.1,171.5 L 834.9,170.9 L 835.7,170.3 L 836.4,169.7 L 837.2,169.0 L 838.0,168.4 L 838.7,167.8 L 839.5,167.1 L 840.3,166.5 L 841.0,165.8 L 841.7,165.2 L 842.5,164.5 L 843.2,163.9 L 843.9,163.2 L 844.6,162.5 L 845.3,161.9 L 846.0,161.2 L 846.7,160.5 L 847.4,159.8 L 848.0,159.2 L 848.7,158.5 L 849.4,157.8 L 850.0,157.1 L 850.6,156.4 L 851.3,155.7 L 851.9,155.0 L 852.5,154.3 L 853.1,153.6 L 853.8,152.9 L 854.4,152.2 L 854.9,151.5 L 855.5,150.7 L 856.1,150.0 L 856.7,149.3 L 857.2,148.6 L 857.8,147.8 L 858.3,147.1 L 858.9,146.4 L 859.4,145.6 L 859.9,144.9 L 860.4,144.1 L 860.9,143.4 L 861.4,142.6 L 861.9,141.9 L 862.4,141.1 L 862.9,140.4 L 863.4,139.6 L 863.8,138.8 L 864.3,138.1 L 864.7,137.3 L 865.1,136.5 L 865.6,135.7 L 866.0,134.9 L 866.4,134.2 L 866.8,133.4 L 867.2,132.6 L 867.6,131.8 L 867.9,131.0 L 868.3,130.2 L 868.7,129.4 L 869.0,128.6 L 869.3,127.8 L 869.7,127.0 L 870.0,126.2 L 870.3,125.3 L 870.6,124.5 L 870.9,123.7 L 871.2,122.9 L 871.5,122.1 L 871.7,121.2 L 872.0,120.4 L 872.3,119.6 L 872.5,118.7 L 872.7,117.9 L 873.0,117.0 L 873.2,116.2 L 873.4,115.3 L 873.6,114.5 L 873.8,113.6 L 873.9,112.8 L 874.1,111.9 L 874.3,111.1 L 874.4,110.2 L 874.5,109.3 L 874.7,108.5 L 874.8,107.6 L 874.9,106.7 L 875.0,105.8 L 875.1,105.0 L 875.2,104.1 L 875.2,103.3 L 875.3,102.6 L 875.4,101.9 L 875.4,101.1 L 875.4,100.4 L 875.5,99.7 L 875.5,98.9 L 875.5,98.2 L 875.6,97.4 L 875.6,96.7 L 875.6,96.0 L 875.6,95.2 L 875.6,94.5 L 875.6,93.8 L 875.6,93.0 L 875.5,92.3 L 875.5,91.5 L 875.5,90.8 L 875.4,90.1 L 875.4,89.3 L 875.3,88.6 L 875.3,87.9 L 875.2,87.1 L 875.2,86.4 L 875.1,85.7 L 875.0,85.0 L 874.9,84.2 L 874.8,83.5 L 874.7,82.8 L 874.6,82.1 L 874.5,81.3 L 874.4,80.6 L 874.3,79.9 L 874.2,79.2 L 874.1,78.5 L 873.9,77.8 L 873.8,77.1 L 873.6,76.3 L 873.5,75.6 L 873.3,74.9 L 873.2,74.2 L 873.0,73.5 L 872.8,72.8 L 872.7,72.1 L 872.5,71.4 L 872.3,70.7 L 872.1,70.1 L 871.9,69.4 L 871.7,68.7 L 871.5,68.0 L 871.3,67.3 L 871.0,66.6 L 870.8,66.0 L 870.6,65.3 L 870.3,64.6 L 870.1,64.0 L 869.9,63.3 L 869.6,62.6 L 869.3,62.0 L 869.1,61.3 L 868.8,60.7 L 868.5,60.0 L 868.3,59.4 L 868.0,58.7 L 867.7,58.1 L 867.4,57.5 L 867.1,56.8 L 866.8,56.2 L 866.5,55.6 L 866.2,55.0 L 865.9,54.3 L 865.5,53.7 L 865.2,53.1 L 864.9,52.5 L 864.5,51.9 L 864.2,51.3 L 863.8,50.7 L 863.5,50.1 L 863.1,49.6 L 862.8,49.0 L 862.4,48.4 L 862.0,47.8 L 861.6,47.3 L 861.2,46.7 L 860.9,46.2 L 860.5,45.6 L 860.1,45.1 L 859.7,44.5 L 859.2,44.0 L 858.8,43.4 L 858.4,42.9 L 858.0,42.4 L 857.6,41.9 L 857.1,41.4 L 856.7,40.9 L 856.2,40.4 L 855.8,39.9 L 855.3,39.4 L 854.9,38.9 L 854.4,38.4 L 854.0,37.9 L 853.5,37.5 L 853.0,37.0 L 852.5,36.5 L 852.0,36.1 L 851.6,35.6 L 851.1,35.2 L 850.6,34.8 L 850.1,34.3 L 849.6,33.9 L 849.0,33.5 L 848.5,33.1 L 848.0,32.7 L 847.5,32.3 L 846.9,31.9 L 846.4,31.5 L 845.9,31.1 L 845.3,30.8 L 844.8,30.4 L 844.2,30.0 L 843.8,29.8 L 843.3,29.5 L 842.8,29.2 L 842.4,29.0 L 841.9,28.7 L 841.4,28.5 L 841.0,28.2 L 840.5,28.0 L 840.0,27.8 L 839.5,27.6 L 839.1,27.5 L 838.6,27.3 L 838.1,27.1 L 837.7,27.0 L 837.2,26.9 L 836.7,26.7 L 836.3,26.6 L 835.8,26.5 L 835.3,26.4 L 834.9,26.4 L 834.4,26.3 L 833.9,26.2 L 833.5,26.2 L 833.0,26.2 L 832.5,26.1 L 832.1,26.1 L 831.6,26.1 L 831.1,26.1 L 830.7,26.1 L 830.2,26.2 L 829.8,26.2 L 829.3,26.3 L 828.9,26.3 L 828.4,26.4 L 828.0,26.5 L 827.5,26.6 L 827.1,26.7 L 826.6,26.8 L 826.2,26.9 L 825.7,27.0 L 825.3,27.2 L 824.9,27.3 L 824.4,27.5 L 824.0,27.7 L 823.6,27.9 L 823.2,28.1 L 822.7,28.3 L 822.3,28.5 L 821.9,28.7 L 821.5,28.9 L 821.1,29.2 L 820.6,29.4 L 820.2,29.7 L 819.8,30.0 L 819.4,30.2 L 819.0,30.5 L 818.6,30.8 L 818.2,31.1 L 817.9,31.5 L 817.5,31.8 L 817.1,32.1 L 816.7,32.5 L 816.3,32.8 L 815.9,33.2 L 815.6,33.5 L 815.2,33.9 L 814.8,34.3 L 814.5,34.7 L 814.1,35.1 L 813.8,35.5 L 813.4,35.9 L 813.1,36.4 L 812.7,36.8 L 812.4,37.3 L 812.0,37.7 L 811.7,38.2 L 811.4,38.7 L 811.0,39.1 L 810.7,39.6 L 810.4,40.1 L 810.1,40.6 L 809.7,41.2 L 809.4,41.7 L 809.1,42.2 L 808.8,42.8 L 808.5,43.3 L 808.2,43.9 L 807.9,44.4 L 807.7,45.0 L 807.4,45.6 L 807.1,46.2 L 806.8,46.8 L 806.6,47.4 Z" fill="#9CC8FF" opacity="0.4" filter="url(#gl)"/>
    <path d="M 778.9,46.4 L 778.5,45.9 L 778.1,45.4 L 777.7,45.0 L 777.3,44.5 L 776.9,44.1 L 776.5,43.7 L 776.2,43.2 L 775.8,42.8 L 775.4,42.4 L 774.9,42.0 L 774.5,41.6 L 774.1,41.3 L 773.7,40.9 L 773.3,40.5 L 772.9,40.2 L 772.5,39.9 L 772.1,39.5 L 771.7,39.2 L 771.2,38.9 L 770.8,38.6 L 770.4,38.3 L 770.0,38.0 L 769.5,37.7 L 769.1,37.5 L 768.7,37.2 L 768.3,36.9 L 767.8,36.7 L 767.4,36.5 L 767.0,36.3 L 766.5,36.0 L 766.1,35.8 L 765.6,35.6 L 765.2,35.5 L 764.8,35.3 L 764.3,35.1 L 763.9,35.0 L 763.4,34.8 L 763.0,34.7 L 762.6,34.6 L 762.1,34.5 L 761.7,34.3 L 761.2,34.3 L 760.8,34.2 L 760.3,34.1 L 759.9,34.0 L 759.4,34.0 L 759.0,33.9 L 758.5,33.9 L 758.1,33.9 L 757.6,33.9 L 757.2,33.9 L 756.7,33.9 L 756.3,33.9 L 755.9,33.9 L 755.4,33.9 L 755.0,34.0 L 754.5,34.1 L 754.1,34.1 L 753.6,34.2 L 753.2,34.3 L 752.7,34.4 L 752.3,34.5 L 751.8,34.6 L 751.4,34.8 L 751.0,34.9 L 750.5,35.1 L 750.1,35.2 L 749.7,35.4 L 749.2,35.6 L 748.8,35.8 L 748.4,36.0 L 747.9,36.2 L 747.5,36.5 L 747.1,36.7 L 746.7,36.9 L 746.2,37.2 L 745.8,37.5 L 745.4,37.8 L 745.0,38.1 L 744.6,38.4 L 744.2,38.7 L 743.8,39.0 L 743.3,39.4 L 742.9,39.7 L 742.5,40.1 L 742.1,40.5 L 741.6,40.9 L 741.1,41.4 L 740.7,41.9 L 740.2,42.3 L 739.8,42.8 L 739.3,43.3 L 738.9,43.7 L 738.5,44.2 L 738.0,44.7 L 737.6,45.2 L 737.2,45.7 L 736.8,46.2 L 736.4,46.7 L 736.0,47.2 L 735.6,47.8 L 735.2,48.3 L 734.8,48.8 L 734.5,49.4 L 734.1,49.9 L 733.7,50.4 L 733.4,51.0 L 733.0,51.5 L 732.7,52.1 L 732.3,52.7 L 732.0,53.2 L 731.6,53.8 L 731.3,54.4 L 731.0,54.9 L 730.7,55.5 L 730.4,56.1 L 730.1,56.7 L 729.8,57.3 L 729.5,57.9 L 729.2,58.5 L 728.9,59.1 L 728.6,59.7 L 728.3,60.3 L 728.1,60.9 L 727.8,61.6 L 727.6,62.2 L 727.3,62.8 L 727.1,63.5 L 726.8,64.1 L 726.6,64.7 L 726.4,65.4 L 726.2,66.0 L 725.9,66.6 L 725.7,67.3 L 725.5,67.9 L 725.3,68.6 L 725.1,69.3 L 724.9,69.9 L 724.8,70.6 L 724.6,71.2 L 724.4,71.9 L 724.3,72.6 L 724.1,73.3 L 723.9,73.9 L 723.8,74.6 L 723.7,75.3 L 723.5,76.0 L 723.4,76.6 L 723.3,77.3 L 723.1,78.0 L 723.0,78.7 L 722.9,79.4 L 722.8,80.1 L 722.7,80.8 L 722.6,81.5 L 722.5,82.2 L 722.4,82.9 L 722.4,83.6 L 722.3,84.3 L 722.2,85.0 L 722.2,85.7 L 722.1,86.4 L 722.1,87.1 L 722.0,87.8 L 722.0,88.5 L 722.0,89.2 L 721.9,89.9 L 721.9,90.7 L 721.9,91.4 L 721.9,92.1 L 721.9,92.8 L 721.9,93.5 L 721.9,94.2 L 721.9,94.9 L 722.0,95.7 L 722.0,96.4 L 722.0,97.1 L 722.0,97.8 L 722.1,98.5 L 722.1,99.2 L 722.2,100.0 L 722.3,100.7 L 722.3,101.4 L 722.4,102.1 L 722.5,102.8 L 722.5,103.6 L 722.6,104.3 L 722.7,105.0 L 722.8,105.7 L 722.9,106.4 L 723.0,107.1 L 723.2,107.9 L 723.3,108.6 L 723.4,109.3 L 723.5,110.0 L 723.7,110.7 L 723.8,111.4 L 724.0,112.1 L 724.1,112.9 L 724.3,113.6 L 724.5,114.3 L 724.6,115.0 L 724.8,115.7 L 725.0,116.4 L 725.2,117.1 L 725.4,117.9 L 725.7,118.8 L 725.9,119.6 L 726.2,120.4 L 726.4,121.2 L 726.7,122.1 L 727.0,122.9 L 727.3,123.7 L 727.6,124.5 L 727.9,125.3 L 728.2,126.1 L 728.5,126.9 L 728.9,127.7 L 729.2,128.5 L 729.6,129.3 L 729.9,130.0 L 730.3,130.8 L 730.7,131.6 L 731.0,132.4 L 731.4,133.1 L 731.8,133.9 L 732.3,134.6 L 732.7,135.4 L 733.1,136.1 L 733.5,136.9 L 734.0,137.6 L 734.4,138.3 L 734.9,139.1 L 735.4,139.8 L 735.8,140.5 L 736.3,141.2 L 736.8,141.9 L 737.3,142.6 L 737.8,143.3 L 738.3,144.0 L 738.9,144.7 L 739.4,145.4 L 739.9,146.1 L 740.5,146.8 L 741.0,147.5 L 741.6,148.2 L 742.1,148.8 L 742.7,149.5 L 743.3,150.2 L 743.9,150.8 L 744.5,151.5 L 745.1,152.1 L 745.7,152.8 L 746.3,153.4 L 746.9,154.0 L 747.6,154.7 L 748.2,155.3 L 748.9,155.9 L 749.5,156.5 L 750.2,157.1 L 750.9,157.8 L 751.5,158.4 L 752.2,159.0 L 752.9,159.6 L 753.6,160.1 L 754.3,160.7 L 755.0,161.3 L 755.7,161.9 L 756.4,162.5 L 757.2,163.0 L 757.9,163.6 L 758.7,164.2 L 759.4,164.7 L 760.2,165.3 L 760.9,165.8 L 761.7,166.4 L 762.5,166.9 L 763.2,167.5 L 764.0,168.0 L 764.8,168.5 L 765.6,169.0 L 766.4,169.6 L 767.2,170.1 L 768.1,170.6 L 768.9,171.1 L 769.7,171.6 L 770.5,172.1 L 771.4,172.6 L 772.2,173.1 L 773.1,173.5 L 774.0,174.0 L 774.8,174.5 L 775.7,174.9 L 776.6,175.4 L 776.9,174.8 L 776.1,174.3 L 775.2,173.8 L 774.4,173.3 L 773.5,172.8 L 772.7,172.3 L 771.9,171.7 L 771.1,171.2 L 770.2,170.7 L 769.4,170.2 L 768.6,169.7 L 767.8,169.1 L 767.0,168.6 L 766.3,168.1 L 765.5,167.5 L 764.7,167.0 L 763.9,166.4 L 763.2,165.9 L 762.4,165.3 L 761.7,164.8 L 761.0,164.2 L 760.2,163.7 L 759.5,163.1 L 758.8,162.5 L 758.1,161.9 L 757.4,161.4 L 756.7,160.8 L 756.0,160.2 L 755.3,159.6 L 754.6,159.0 L 753.9,158.4 L 753.3,157.8 L 752.6,157.2 L 751.9,156.6 L 751.3,156.0 L 750.7,155.3 L 750.0,154.7 L 749.4,154.1 L 748.8,153.5 L 748.2,152.8 L 747.6,152.2 L 747.0,151.6 L 746.4,150.9 L 745.8,150.3 L 745.2,149.6 L 744.7,149.0 L 744.1,148.3 L 743.6,147.6 L 743.0,147.0 L 742.5,146.3 L 742.0,145.6 L 741.4,144.9 L 740.9,144.3 L 740.4,143.6 L 739.9,142.9 L 739.4,142.2 L 738.9,141.5 L 738.5,140.8 L 738.0,140.1 L 737.5,139.4 L 737.1,138.7 L 736.7,138.0 L 736.2,137.2 L 735.8,136.5 L 735.4,135.8 L 735.0,135.1 L 734.6,134.3 L 734.2,133.6 L 733.8,132.9 L 733.4,132.1 L 733.0,131.4 L 732.7,130.6 L 732.3,129.9 L 731.9,129.1 L 731.6,128.3 L 731.3,127.6 L 731.0,126.8 L 730.6,126.0 L 730.3,125.3 L 730.0,124.5 L 729.7,123.7 L 729.5,122.9 L 729.2,122.1 L 728.9,121.3 L 728.7,120.5 L 728.4,119.7 L 728.2,118.9 L 728.0,118.1 L 727.7,117.3 L 727.5,116.5 L 727.4,115.8 L 727.2,115.1 L 727.0,114.4 L 726.9,113.7 L 726.7,113.0 L 726.6,112.3 L 726.4,111.6 L 726.3,110.9 L 726.1,110.2 L 726.0,109.5 L 725.9,108.9 L 725.8,108.2 L 725.7,107.5 L 725.6,106.8 L 725.5,106.1 L 725.4,105.4 L 725.3,104.7 L 725.2,104.0 L 725.1,103.3 L 725.0,102.6 L 725.0,101.9 L 724.9,101.2 L 724.8,100.5 L 724.8,99.8 L 724.7,99.1 L 724.7,98.4 L 724.7,97.7 L 724.6,97.0 L 724.6,96.3 L 724.6,95.6 L 724.6,94.9 L 724.6,94.2 L 724.6,93.5 L 724.6,92.8 L 724.6,92.1 L 724.6,91.4 L 724.6,90.7 L 724.6,90.0 L 724.6,89.3 L 724.7,88.7 L 724.7,88.0 L 724.8,87.3 L 724.8,86.6 L 724.9,85.9 L 724.9,85.2 L 725.0,84.5 L 725.0,83.9 L 725.1,83.2 L 725.2,82.5 L 725.3,81.8 L 725.4,81.2 L 725.5,80.5 L 725.6,79.8 L 725.7,79.1 L 725.8,78.5 L 725.9,77.8 L 726.0,77.1 L 726.2,76.5 L 726.3,75.8 L 726.4,75.2 L 726.6,74.5 L 726.7,73.9 L 726.9,73.2 L 727.0,72.6 L 727.2,71.9 L 727.4,71.3 L 727.5,70.6 L 727.7,70.0 L 727.9,69.4 L 728.1,68.7 L 728.3,68.1 L 728.5,67.5 L 728.7,66.9 L 728.9,66.2 L 729.1,65.6 L 729.3,65.0 L 729.6,64.4 L 729.8,63.8 L 730.0,63.2 L 730.3,62.6 L 730.5,62.0 L 730.8,61.4 L 731.0,60.8 L 731.3,60.2 L 731.6,59.6 L 731.8,59.0 L 732.1,58.5 L 732.4,57.9 L 732.7,57.3 L 733.0,56.8 L 733.3,56.2 L 733.6,55.6 L 733.9,55.1 L 734.2,54.5 L 734.5,54.0 L 734.9,53.4 L 735.2,52.9 L 735.5,52.4 L 735.9,51.8 L 736.2,51.3 L 736.6,50.8 L 736.9,50.3 L 737.3,49.8 L 737.6,49.3 L 738.0,48.8 L 738.4,48.3 L 738.8,47.8 L 739.1,47.3 L 739.5,46.8 L 739.9,46.3 L 740.3,45.8 L 740.7,45.4 L 741.1,44.9 L 741.6,44.4 L 742.0,44.0 L 742.4,43.5 L 742.8,43.1 L 743.3,42.7 L 743.7,42.2 L 744.2,41.8 L 744.5,41.5 L 744.9,41.1 L 745.3,40.8 L 745.6,40.5 L 746.0,40.2 L 746.4,39.9 L 746.7,39.6 L 747.1,39.4 L 747.5,39.1 L 747.9,38.9 L 748.2,38.6 L 748.6,38.4 L 749.0,38.2 L 749.4,38.0 L 749.8,37.8 L 750.1,37.6 L 750.5,37.4 L 750.9,37.2 L 751.3,37.1 L 751.7,36.9 L 752.1,36.8 L 752.5,36.6 L 752.9,36.5 L 753.3,36.4 L 753.6,36.3 L 754.0,36.2 L 754.4,36.1 L 754.8,36.0 L 755.2,36.0 L 755.6,35.9 L 756.0,35.9 L 756.4,35.8 L 756.8,35.8 L 757.2,35.8 L 757.6,35.8 L 758.0,35.8 L 758.5,35.8 L 758.9,35.8 L 759.3,35.8 L 759.7,35.8 L 760.1,35.9 L 760.5,35.9 L 760.9,36.0 L 761.3,36.1 L 761.7,36.2 L 762.1,36.2 L 762.6,36.3 L 763.0,36.5 L 763.4,36.6 L 763.8,36.7 L 764.2,36.8 L 764.6,37.0 L 765.0,37.1 L 765.5,37.3 L 765.9,37.5 L 766.3,37.6 L 766.7,37.8 L 767.1,38.0 L 767.6,38.2 L 768.0,38.5 L 768.4,38.7 L 768.8,38.9 L 769.2,39.2 L 769.6,39.4 L 770.1,39.7 L 770.5,40.0 L 770.9,40.2 L 771.3,40.5 L 771.7,40.8 L 772.1,41.2 L 772.6,41.5 L 773.0,41.8 L 773.4,42.1 L 773.8,42.5 L 774.2,42.8 L 774.6,43.2 L 775.0,43.6 L 775.4,44.0 L 775.8,44.3 L 776.3,44.7 L 776.7,45.2 L 777.1,45.6 L 777.5,46.0 L 777.9,46.4 L 778.3,46.9 Z" fill="#9CC8FF" opacity="0.4" filter="url(#gl)"/>
    <path d="M 807.3,47.7 L 807.6,47.1 L 807.9,46.6 L 808.2,46.0 L 808.5,45.4 L 808.8,44.9 L 809.1,44.4 L 809.4,43.8 L 809.8,43.3 L 810.1,42.8 L 810.4,42.3 L 810.7,41.8 L 811.1,41.3 L 811.4,40.8 L 811.7,40.3 L 812.1,39.9 L 812.4,39.4 L 812.8,39.0 L 813.1,38.6 L 813.4,38.1 L 813.8,37.7 L 814.2,37.3 L 814.5,36.9 L 814.9,36.5 L 815.2,36.1 L 815.6,35.7 L 815.9,35.4 L 816.3,35.0 L 816.7,34.7 L 817.0,34.3 L 817.4,34.0 L 817.8,33.7 L 818.2,33.4 L 818.5,33.1 L 818.9,32.8 L 819.3,32.5 L 819.7,32.2 L 820.1,32.0 L 820.4,31.7 L 820.8,31.5 L 821.2,31.2 L 821.6,31.0 L 822.0,30.8 L 822.4,30.6 L 822.8,30.4 L 823.2,30.2 L 823.6,30.0 L 823.9,29.9 L 824.3,29.7 L 824.7,29.5 L 825.1,29.4 L 825.5,29.3 L 825.9,29.1 L 826.3,29.0 L 826.7,28.9 L 827.1,28.8 L 827.5,28.7 L 827.9,28.7 L 828.3,28.6 L 828.7,28.5 L 829.1,28.5 L 829.6,28.4 L 830.0,28.4 L 830.4,28.4 L 830.8,28.4 L 831.2,28.4 L 831.6,28.4 L 832.0,28.4 L 832.4,28.4 L 832.8,28.5 L 833.2,28.5 L 833.6,28.6 L 834.0,28.6 L 834.5,28.7 L 834.9,28.8 L 835.3,28.9 L 835.7,29.0 L 836.1,29.1 L 836.5,29.2 L 836.9,29.3 L 837.4,29.5 L 837.8,29.6 L 838.2,29.8 L 838.6,30.0 L 839.0,30.1 L 839.4,30.3 L 839.9,30.5 L 840.3,30.7 L 840.7,31.0 L 841.1,31.2 L 841.5,31.4 L 842.0,31.7 L 842.4,31.9 L 842.8,32.2 L 843.3,32.6 L 843.8,32.9 L 844.4,33.3 L 844.9,33.7 L 845.4,34.0 L 845.9,34.4 L 846.4,34.8 L 846.9,35.2 L 847.4,35.6 L 847.8,36.0 L 848.3,36.4 L 848.8,36.8 L 849.3,37.2 L 849.7,37.6 L 850.2,38.1 L 850.6,38.5 L 851.1,39.0 L 851.5,39.4 L 852.0,39.9 L 852.4,40.3 L 852.9,40.8 L 853.3,41.2 L 853.7,41.7 L 854.2,42.2 L 854.6,42.7 L 855.0,43.2 L 855.4,43.7 L 855.8,44.2 L 856.2,44.7 L 856.6,45.2 L 857.0,45.7 L 857.4,46.2 L 857.8,46.7 L 858.1,47.3 L 858.5,47.8 L 858.9,48.3 L 859.3,48.9 L 859.6,49.4 L 860.0,50.0 L 860.3,50.5 L 860.7,51.1 L 861.0,51.6 L 861.4,52.2 L 861.7,52.8 L 862.0,53.4 L 862.3,53.9 L 862.7,54.5 L 863.0,55.1 L 863.3,55.7 L 863.6,56.3 L 863.9,56.9 L 864.2,57.5 L 864.5,58.1 L 864.8,58.7 L 865.1,59.3 L 865.3,59.9 L 865.6,60.5 L 865.9,61.2 L 866.1,61.8 L 866.4,62.4 L 866.7,63.0 L 866.9,63.7 L 867.1,64.3 L 867.4,65.0 L 867.6,65.6 L 867.8,66.2 L 868.1,66.9 L 868.3,67.6 L 868.5,68.2 L 868.7,68.9 L 868.9,69.5 L 869.1,70.2 L 869.3,70.8 L 869.5,71.5 L 869.7,72.2 L 869.9,72.9 L 870.0,73.5 L 870.2,74.2 L 870.4,74.9 L 870.5,75.6 L 870.7,76.3 L 870.8,76.9 L 871.0,77.6 L 871.1,78.3 L 871.3,79.0 L 871.4,79.7 L 871.5,80.4 L 871.6,81.1 L 871.7,81.8 L 871.8,82.5 L 871.9,83.2 L 872.0,83.9 L 872.1,84.6 L 872.2,85.3 L 872.3,86.0 L 872.4,86.7 L 872.5,87.4 L 872.5,88.1 L 872.6,88.8 L 872.6,89.5 L 872.7,90.2 L 872.7,91.0 L 872.8,91.7 L 872.8,92.4 L 872.8,93.1 L 872.8,93.8 L 872.9,94.5 L 872.9,95.2 L 872.9,96.0 L 872.9,96.7 L 872.9,97.4 L 872.9,98.1 L 872.9,98.8 L 872.8,99.6 L 872.8,100.3 L 872.8,101.0 L 872.7,101.7 L 872.7,102.4 L 872.6,103.1 L 872.6,103.9 L 872.5,104.7 L 872.4,105.6 L 872.4,106.4 L 872.3,107.3 L 872.2,108.1 L 872.0,109.0 L 871.9,109.8 L 871.8,110.6 L 871.6,111.5 L 871.5,112.3 L 871.3,113.1 L 871.2,114.0 L 871.0,114.8 L 870.8,115.6 L 870.6,116.4 L 870.4,117.3 L 870.2,118.1 L 870.0,118.9 L 869.7,119.7 L 869.5,120.5 L 869.2,121.3 L 869.0,122.1 L 868.7,122.9 L 868.4,123.7 L 868.2,124.5 L 867.9,125.3 L 867.6,126.1 L 867.3,126.9 L 866.9,127.7 L 866.6,128.5 L 866.3,129.3 L 865.9,130.1 L 865.6,130.9 L 865.2,131.7 L 864.9,132.4 L 864.5,133.2 L 864.1,134.0 L 863.7,134.8 L 863.3,135.5 L 862.9,136.3 L 862.5,137.1 L 862.1,137.8 L 861.6,138.6 L 861.2,139.3 L 860.7,140.1 L 860.3,140.8 L 859.8,141.6 L 859.3,142.3 L 858.8,143.1 L 858.4,143.8 L 857.9,144.6 L 857.4,145.3 L 856.8,146.0 L 856.3,146.8 L 855.8,147.5 L 855.3,148.2 L 854.7,148.9 L 854.2,149.7 L 853.6,150.4 L 853.0,151.1 L 852.5,151.8 L 851.9,152.5 L 851.3,153.2 L 850.7,154.0 L 850.1,154.7 L 849.5,155.4 L 848.9,156.1 L 848.2,156.8 L 847.6,157.4 L 847.0,158.1 L 846.3,158.8 L 845.7,159.5 L 845.0,160.2 L 844.3,160.9 L 843.7,161.6 L 843.0,162.2 L 842.3,162.9 L 841.6,163.6 L 840.9,164.2 L 840.2,164.9 L 839.5,165.6 L 838.7,166.2 L 838.0,166.9 L 837.3,167.5 L 836.5,168.2 L 835.8,168.8 L 835.0,169.5 L 834.2,170.1 L 833.5,170.8 L 832.7,171.4 L 831.9,172.1 L 831.1,172.7 L 830.4,173.3 L 830.8,173.9 L 831.6,173.3 L 832.5,172.7 L 833.3,172.1 L 834.1,171.5 L 834.9,170.9 L 835.7,170.3 L 836.4,169.7 L 837.2,169.0 L 838.0,168.4 L 838.7,167.8 L 839.5,167.1 L 840.3,166.5 L 841.0,165.8 L 841.7,165.2 L 842.5,164.5 L 843.2,163.9 L 843.9,163.2 L 844.6,162.5 L 845.3,161.9 L 846.0,161.2 L 846.7,160.5 L 847.4,159.8 L 848.0,159.2 L 848.7,158.5 L 849.4,157.8 L 850.0,157.1 L 850.6,156.4 L 851.3,155.7 L 851.9,155.0 L 852.5,154.3 L 853.1,153.6 L 853.8,152.9 L 854.4,152.2 L 854.9,151.5 L 855.5,150.7 L 856.1,150.0 L 856.7,149.3 L 857.2,148.6 L 857.8,147.8 L 858.3,147.1 L 858.9,146.4 L 859.4,145.6 L 859.9,144.9 L 860.4,144.1 L 860.9,143.4 L 861.4,142.6 L 861.9,141.9 L 862.4,141.1 L 862.9,140.4 L 863.4,139.6 L 863.8,138.8 L 864.3,138.1 L 864.7,137.3 L 865.1,136.5 L 865.6,135.7 L 866.0,134.9 L 866.4,134.2 L 866.8,133.4 L 867.2,132.6 L 867.6,131.8 L 867.9,131.0 L 868.3,130.2 L 868.7,129.4 L 869.0,128.6 L 869.3,127.8 L 869.7,127.0 L 870.0,126.2 L 870.3,125.3 L 870.6,124.5 L 870.9,123.7 L 871.2,122.9 L 871.5,122.1 L 871.7,121.2 L 872.0,120.4 L 872.3,119.6 L 872.5,118.7 L 872.7,117.9 L 873.0,117.0 L 873.2,116.2 L 873.4,115.3 L 873.6,114.5 L 873.8,113.6 L 873.9,112.8 L 874.1,111.9 L 874.3,111.1 L 874.4,110.2 L 874.5,109.3 L 874.7,108.5 L 874.8,107.6 L 874.9,106.7 L 875.0,105.8 L 875.1,105.0 L 875.2,104.1 L 875.2,103.3 L 875.3,102.6 L 875.4,101.9 L 875.4,101.1 L 875.4,100.4 L 875.5,99.7 L 875.5,98.9 L 875.5,98.2 L 875.6,97.4 L 875.6,96.7 L 875.6,96.0 L 875.6,95.2 L 875.6,94.5 L 875.6,93.8 L 875.6,93.0 L 875.5,92.3 L 875.5,91.5 L 875.5,90.8 L 875.4,90.1 L 875.4,89.3 L 875.3,88.6 L 875.3,87.9 L 875.2,87.1 L 875.2,86.4 L 875.1,85.7 L 875.0,85.0 L 874.9,84.2 L 874.8,83.5 L 874.7,82.8 L 874.6,82.1 L 874.5,81.3 L 874.4,80.6 L 874.3,79.9 L 874.2,79.2 L 874.1,78.5 L 873.9,77.8 L 873.8,77.1 L 873.6,76.3 L 873.5,75.6 L 873.3,74.9 L 873.2,74.2 L 873.0,73.5 L 872.8,72.8 L 872.7,72.1 L 872.5,71.4 L 872.3,70.7 L 872.1,70.1 L 871.9,69.4 L 871.7,68.7 L 871.5,68.0 L 871.3,67.3 L 871.0,66.6 L 870.8,66.0 L 870.6,65.3 L 870.3,64.6 L 870.1,64.0 L 869.9,63.3 L 869.6,62.6 L 869.3,62.0 L 869.1,61.3 L 868.8,60.7 L 868.5,60.0 L 868.3,59.4 L 868.0,58.7 L 867.7,58.1 L 867.4,57.5 L 867.1,56.8 L 866.8,56.2 L 866.5,55.6 L 866.2,55.0 L 865.9,54.3 L 865.5,53.7 L 865.2,53.1 L 864.9,52.5 L 864.5,51.9 L 864.2,51.3 L 863.8,50.7 L 863.5,50.1 L 863.1,49.6 L 862.8,49.0 L 862.4,48.4 L 862.0,47.8 L 861.6,47.3 L 861.2,46.7 L 860.9,46.2 L 860.5,45.6 L 860.1,45.1 L 859.7,44.5 L 859.2,44.0 L 858.8,43.4 L 858.4,42.9 L 858.0,42.4 L 857.6,41.9 L 857.1,41.4 L 856.7,40.9 L 856.2,40.4 L 855.8,39.9 L 855.3,39.4 L 854.9,38.9 L 854.4,38.4 L 854.0,37.9 L 853.5,37.5 L 853.0,37.0 L 852.5,36.5 L 852.0,36.1 L 851.6,35.6 L 851.1,35.2 L 850.6,34.8 L 850.1,34.3 L 849.6,33.9 L 849.0,33.5 L 848.5,33.1 L 848.0,32.7 L 847.5,32.3 L 846.9,31.9 L 846.4,31.5 L 845.9,31.1 L 845.3,30.8 L 844.8,30.4 L 844.2,30.0 L 843.8,29.8 L 843.3,29.5 L 842.8,29.2 L 842.4,29.0 L 841.9,28.7 L 841.4,28.5 L 841.0,28.2 L 840.5,28.0 L 840.0,27.8 L 839.5,27.6 L 839.1,27.5 L 838.6,27.3 L 838.1,27.1 L 837.7,27.0 L 837.2,26.9 L 836.7,26.7 L 836.3,26.6 L 835.8,26.5 L 835.3,26.4 L 834.9,26.4 L 834.4,26.3 L 833.9,26.2 L 833.5,26.2 L 833.0,26.2 L 832.5,26.1 L 832.1,26.1 L 831.6,26.1 L 831.1,26.1 L 830.7,26.1 L 830.2,26.2 L 829.8,26.2 L 829.3,26.3 L 828.9,26.3 L 828.4,26.4 L 828.0,26.5 L 827.5,26.6 L 827.1,26.7 L 826.6,26.8 L 826.2,26.9 L 825.7,27.0 L 825.3,27.2 L 824.9,27.3 L 824.4,27.5 L 824.0,27.7 L 823.6,27.9 L 823.2,28.1 L 822.7,28.3 L 822.3,28.5 L 821.9,28.7 L 821.5,28.9 L 821.1,29.2 L 820.6,29.4 L 820.2,29.7 L 819.8,30.0 L 819.4,30.2 L 819.0,30.5 L 818.6,30.8 L 818.2,31.1 L 817.9,31.5 L 817.5,31.8 L 817.1,32.1 L 816.7,32.5 L 816.3,32.8 L 815.9,33.2 L 815.6,33.5 L 815.2,33.9 L 814.8,34.3 L 814.5,34.7 L 814.1,35.1 L 813.8,35.5 L 813.4,35.9 L 813.1,36.4 L 812.7,36.8 L 812.4,37.3 L 812.0,37.7 L 811.7,38.2 L 811.4,38.7 L 811.0,39.1 L 810.7,39.6 L 810.4,40.1 L 810.1,40.6 L 809.7,41.2 L 809.4,41.7 L 809.1,42.2 L 808.8,42.8 L 808.5,43.3 L 808.2,43.9 L 807.9,44.4 L 807.7,45.0 L 807.4,45.6 L 807.1,46.2 L 806.8,46.8 L 806.6,47.4 Z" fill="#FFFFFF" opacity="0.92"/>
    <path d="M 778.9,46.4 L 778.5,45.9 L 778.1,45.4 L 777.7,45.0 L 777.3,44.5 L 776.9,44.1 L 776.5,43.7 L 776.2,43.2 L 775.8,42.8 L 775.4,42.4 L 774.9,42.0 L 774.5,41.6 L 774.1,41.3 L 773.7,40.9 L 773.3,40.5 L 772.9,40.2 L 772.5,39.9 L 772.1,39.5 L 771.7,39.2 L 771.2,38.9 L 770.8,38.6 L 770.4,38.3 L 770.0,38.0 L 769.5,37.7 L 769.1,37.5 L 768.7,37.2 L 768.3,36.9 L 767.8,36.7 L 767.4,36.5 L 767.0,36.3 L 766.5,36.0 L 766.1,35.8 L 765.6,35.6 L 765.2,35.5 L 764.8,35.3 L 764.3,35.1 L 763.9,35.0 L 763.4,34.8 L 763.0,34.7 L 762.6,34.6 L 762.1,34.5 L 761.7,34.3 L 761.2,34.3 L 760.8,34.2 L 760.3,34.1 L 759.9,34.0 L 759.4,34.0 L 759.0,33.9 L 758.5,33.9 L 758.1,33.9 L 757.6,33.9 L 757.2,33.9 L 756.7,33.9 L 756.3,33.9 L 755.9,33.9 L 755.4,33.9 L 755.0,34.0 L 754.5,34.1 L 754.1,34.1 L 753.6,34.2 L 753.2,34.3 L 752.7,34.4 L 752.3,34.5 L 751.8,34.6 L 751.4,34.8 L 751.0,34.9 L 750.5,35.1 L 750.1,35.2 L 749.7,35.4 L 749.2,35.6 L 748.8,35.8 L 748.4,36.0 L 747.9,36.2 L 747.5,36.5 L 747.1,36.7 L 746.7,36.9 L 746.2,37.2 L 745.8,37.5 L 745.4,37.8 L 745.0,38.1 L 744.6,38.4 L 744.2,38.7 L 743.8,39.0 L 743.3,39.4 L 742.9,39.7 L 742.5,40.1 L 742.1,40.5 L 741.6,40.9 L 741.1,41.4 L 740.7,41.9 L 740.2,42.3 L 739.8,42.8 L 739.3,43.3 L 738.9,43.7 L 738.5,44.2 L 738.0,44.7 L 737.6,45.2 L 737.2,45.7 L 736.8,46.2 L 736.4,46.7 L 736.0,47.2 L 735.6,47.8 L 735.2,48.3 L 734.8,48.8 L 734.5,49.4 L 734.1,49.9 L 733.7,50.4 L 733.4,51.0 L 733.0,51.5 L 732.7,52.1 L 732.3,52.7 L 732.0,53.2 L 731.6,53.8 L 731.3,54.4 L 731.0,54.9 L 730.7,55.5 L 730.4,56.1 L 730.1,56.7 L 729.8,57.3 L 729.5,57.9 L 729.2,58.5 L 728.9,59.1 L 728.6,59.7 L 728.3,60.3 L 728.1,60.9 L 727.8,61.6 L 727.6,62.2 L 727.3,62.8 L 727.1,63.5 L 726.8,64.1 L 726.6,64.7 L 726.4,65.4 L 726.2,66.0 L 725.9,66.6 L 725.7,67.3 L 725.5,67.9 L 725.3,68.6 L 725.1,69.3 L 724.9,69.9 L 724.8,70.6 L 724.6,71.2 L 724.4,71.9 L 724.3,72.6 L 724.1,73.3 L 723.9,73.9 L 723.8,74.6 L 723.7,75.3 L 723.5,76.0 L 723.4,76.6 L 723.3,77.3 L 723.1,78.0 L 723.0,78.7 L 722.9,79.4 L 722.8,80.1 L 722.7,80.8 L 722.6,81.5 L 722.5,82.2 L 722.4,82.9 L 722.4,83.6 L 722.3,84.3 L 722.2,85.0 L 722.2,85.7 L 722.1,86.4 L 722.1,87.1 L 722.0,87.8 L 722.0,88.5 L 722.0,89.2 L 721.9,89.9 L 721.9,90.7 L 721.9,91.4 L 721.9,92.1 L 721.9,92.8 L 721.9,93.5 L 721.9,94.2 L 721.9,94.9 L 722.0,95.7 L 722.0,96.4 L 722.0,97.1 L 722.0,97.8 L 722.1,98.5 L 722.1,99.2 L 722.2,100.0 L 722.3,100.7 L 722.3,101.4 L 722.4,102.1 L 722.5,102.8 L 722.5,103.6 L 722.6,104.3 L 722.7,105.0 L 722.8,105.7 L 722.9,106.4 L 723.0,107.1 L 723.2,107.9 L 723.3,108.6 L 723.4,109.3 L 723.5,110.0 L 723.7,110.7 L 723.8,111.4 L 724.0,112.1 L 724.1,112.9 L 724.3,113.6 L 724.5,114.3 L 724.6,115.0 L 724.8,115.7 L 725.0,116.4 L 725.2,117.1 L 725.4,117.9 L 725.7,118.8 L 725.9,119.6 L 726.2,120.4 L 726.4,121.2 L 726.7,122.1 L 727.0,122.9 L 727.3,123.7 L 727.6,124.5 L 727.9,125.3 L 728.2,126.1 L 728.5,126.9 L 728.9,127.7 L 729.2,128.5 L 729.6,129.3 L 729.9,130.0 L 730.3,130.8 L 730.7,131.6 L 731.0,132.4 L 731.4,133.1 L 731.8,133.9 L 732.3,134.6 L 732.7,135.4 L 733.1,136.1 L 733.5,136.9 L 734.0,137.6 L 734.4,138.3 L 734.9,139.1 L 735.4,139.8 L 735.8,140.5 L 736.3,141.2 L 736.8,141.9 L 737.3,142.6 L 737.8,143.3 L 738.3,144.0 L 738.9,144.7 L 739.4,145.4 L 739.9,146.1 L 740.5,146.8 L 741.0,147.5 L 741.6,148.2 L 742.1,148.8 L 742.7,149.5 L 743.3,150.2 L 743.9,150.8 L 744.5,151.5 L 745.1,152.1 L 745.7,152.8 L 746.3,153.4 L 746.9,154.0 L 747.6,154.7 L 748.2,155.3 L 748.9,155.9 L 749.5,156.5 L 750.2,157.1 L 750.9,157.8 L 751.5,158.4 L 752.2,159.0 L 752.9,159.6 L 753.6,160.1 L 754.3,160.7 L 755.0,161.3 L 755.7,161.9 L 756.4,162.5 L 757.2,163.0 L 757.9,163.6 L 758.7,164.2 L 759.4,164.7 L 760.2,165.3 L 760.9,165.8 L 761.7,166.4 L 762.5,166.9 L 763.2,167.5 L 764.0,168.0 L 764.8,168.5 L 765.6,169.0 L 766.4,169.6 L 767.2,170.1 L 768.1,170.6 L 768.9,171.1 L 769.7,171.6 L 770.5,172.1 L 771.4,172.6 L 772.2,173.1 L 773.1,173.5 L 774.0,174.0 L 774.8,174.5 L 775.7,174.9 L 776.6,175.4 L 776.9,174.8 L 776.1,174.3 L 775.2,173.8 L 774.4,173.3 L 773.5,172.8 L 772.7,172.3 L 771.9,171.7 L 771.1,171.2 L 770.2,170.7 L 769.4,170.2 L 768.6,169.7 L 767.8,169.1 L 767.0,168.6 L 766.3,168.1 L 765.5,167.5 L 764.7,167.0 L 763.9,166.4 L 763.2,165.9 L 762.4,165.3 L 761.7,164.8 L 761.0,164.2 L 760.2,163.7 L 759.5,163.1 L 758.8,162.5 L 758.1,161.9 L 757.4,161.4 L 756.7,160.8 L 756.0,160.2 L 755.3,159.6 L 754.6,159.0 L 753.9,158.4 L 753.3,157.8 L 752.6,157.2 L 751.9,156.6 L 751.3,156.0 L 750.7,155.3 L 750.0,154.7 L 749.4,154.1 L 748.8,153.5 L 748.2,152.8 L 747.6,152.2 L 747.0,151.6 L 746.4,150.9 L 745.8,150.3 L 745.2,149.6 L 744.7,149.0 L 744.1,148.3 L 743.6,147.6 L 743.0,147.0 L 742.5,146.3 L 742.0,145.6 L 741.4,144.9 L 740.9,144.3 L 740.4,143.6 L 739.9,142.9 L 739.4,142.2 L 738.9,141.5 L 738.5,140.8 L 738.0,140.1 L 737.5,139.4 L 737.1,138.7 L 736.7,138.0 L 736.2,137.2 L 735.8,136.5 L 735.4,135.8 L 735.0,135.1 L 734.6,134.3 L 734.2,133.6 L 733.8,132.9 L 733.4,132.1 L 733.0,131.4 L 732.7,130.6 L 732.3,129.9 L 731.9,129.1 L 731.6,128.3 L 731.3,127.6 L 731.0,126.8 L 730.6,126.0 L 730.3,125.3 L 730.0,124.5 L 729.7,123.7 L 729.5,122.9 L 729.2,122.1 L 728.9,121.3 L 728.7,120.5 L 728.4,119.7 L 728.2,118.9 L 728.0,118.1 L 727.7,117.3 L 727.5,116.5 L 727.4,115.8 L 727.2,115.1 L 727.0,114.4 L 726.9,113.7 L 726.7,113.0 L 726.6,112.3 L 726.4,111.6 L 726.3,110.9 L 726.1,110.2 L 726.0,109.5 L 725.9,108.9 L 725.8,108.2 L 725.7,107.5 L 725.6,106.8 L 725.5,106.1 L 725.4,105.4 L 725.3,104.7 L 725.2,104.0 L 725.1,103.3 L 725.0,102.6 L 725.0,101.9 L 724.9,101.2 L 724.8,100.5 L 724.8,99.8 L 724.7,99.1 L 724.7,98.4 L 724.7,97.7 L 724.6,97.0 L 724.6,96.3 L 724.6,95.6 L 724.6,94.9 L 724.6,94.2 L 724.6,93.5 L 724.6,92.8 L 724.6,92.1 L 724.6,91.4 L 724.6,90.7 L 724.6,90.0 L 724.6,89.3 L 724.7,88.7 L 724.7,88.0 L 724.8,87.3 L 724.8,86.6 L 724.9,85.9 L 724.9,85.2 L 725.0,84.5 L 725.0,83.9 L 725.1,83.2 L 725.2,82.5 L 725.3,81.8 L 725.4,81.2 L 725.5,80.5 L 725.6,79.8 L 725.7,79.1 L 725.8,78.5 L 725.9,77.8 L 726.0,77.1 L 726.2,76.5 L 726.3,75.8 L 726.4,75.2 L 726.6,74.5 L 726.7,73.9 L 726.9,73.2 L 727.0,72.6 L 727.2,71.9 L 727.4,71.3 L 727.5,70.6 L 727.7,70.0 L 727.9,69.4 L 728.1,68.7 L 728.3,68.1 L 728.5,67.5 L 728.7,66.9 L 728.9,66.2 L 729.1,65.6 L 729.3,65.0 L 729.6,64.4 L 729.8,63.8 L 730.0,63.2 L 730.3,62.6 L 730.5,62.0 L 730.8,61.4 L 731.0,60.8 L 731.3,60.2 L 731.6,59.6 L 731.8,59.0 L 732.1,58.5 L 732.4,57.9 L 732.7,57.3 L 733.0,56.8 L 733.3,56.2 L 733.6,55.6 L 733.9,55.1 L 734.2,54.5 L 734.5,54.0 L 734.9,53.4 L 735.2,52.9 L 735.5,52.4 L 735.9,51.8 L 736.2,51.3 L 736.6,50.8 L 736.9,50.3 L 737.3,49.8 L 737.6,49.3 L 738.0,48.8 L 738.4,48.3 L 738.8,47.8 L 739.1,47.3 L 739.5,46.8 L 739.9,46.3 L 740.3,45.8 L 740.7,45.4 L 741.1,44.9 L 741.6,44.4 L 742.0,44.0 L 742.4,43.5 L 742.8,43.1 L 743.3,42.7 L 743.7,42.2 L 744.2,41.8 L 744.5,41.5 L 744.9,41.1 L 745.3,40.8 L 745.6,40.5 L 746.0,40.2 L 746.4,39.9 L 746.7,39.6 L 747.1,39.4 L 747.5,39.1 L 747.9,38.9 L 748.2,38.6 L 748.6,38.4 L 749.0,38.2 L 749.4,38.0 L 749.8,37.8 L 750.1,37.6 L 750.5,37.4 L 750.9,37.2 L 751.3,37.1 L 751.7,36.9 L 752.1,36.8 L 752.5,36.6 L 752.9,36.5 L 753.3,36.4 L 753.6,36.3 L 754.0,36.2 L 754.4,36.1 L 754.8,36.0 L 755.2,36.0 L 755.6,35.9 L 756.0,35.9 L 756.4,35.8 L 756.8,35.8 L 757.2,35.8 L 757.6,35.8 L 758.0,35.8 L 758.5,35.8 L 758.9,35.8 L 759.3,35.8 L 759.7,35.8 L 760.1,35.9 L 760.5,35.9 L 760.9,36.0 L 761.3,36.1 L 761.7,36.2 L 762.1,36.2 L 762.6,36.3 L 763.0,36.5 L 763.4,36.6 L 763.8,36.7 L 764.2,36.8 L 764.6,37.0 L 765.0,37.1 L 765.5,37.3 L 765.9,37.5 L 766.3,37.6 L 766.7,37.8 L 767.1,38.0 L 767.6,38.2 L 768.0,38.5 L 768.4,38.7 L 768.8,38.9 L 769.2,39.2 L 769.6,39.4 L 770.1,39.7 L 770.5,40.0 L 770.9,40.2 L 771.3,40.5 L 771.7,40.8 L 772.1,41.2 L 772.6,41.5 L 773.0,41.8 L 773.4,42.1 L 773.8,42.5 L 774.2,42.8 L 774.6,43.2 L 775.0,43.6 L 775.4,44.0 L 775.8,44.3 L 776.3,44.7 L 776.7,45.2 L 777.1,45.6 L 777.5,46.0 L 777.9,46.4 L 778.3,46.9 Z" fill="#FFFFFF" opacity="0.92"/>
</svg>