<svg xmlns="http://www.w3.org/2000/svg" viewBox="0 0 256 256" width="256" height="256">
  <path d="M 138.9,62.5 L 139.3,61.9 L 139.7,61.2 L 140.1,60.6 L 140.6,59.9 L 141.0,59.3 L 141.4,58.7 L 141.8,58.1 L 142.2,57.5 L 142.6,56.9 L 143.0,56.3 L 143.4,55.8 L 143.9,55.2 L 144.3,54.7 L 144.7,54.1 L 145.1,53.6 L 145.5,53.1 L 146.0,52.6 L 146.4,52.1 L 146.8,51.6 L 147.3,51.2 L 147.7,50.7 L 148.1,50.3 L 148.6,49.8 L 149.0,49.4 L 149.4,49.0 L 149.9,48.6 L 150.3,48.2 L 150.8,47.9 L 151.2,47.5 L 151.6,47.1 L 152.1,46.8 L 152.5,46.5 L 153.0,46.2 L 153.4,45.9 L 153.8,45.6 L 154.3,45.3 L 154.7,45.0 L 155.2,44.7 L 155.6,44.5 L 156.1,44.2 L 156.5,44.0 L 156.9,43.8 L 157.4,43.6 L 157.8,43.4 L 158.3,43.2 L 158.7,43.0 L 159.1,42.9 L 159.6,42.7 L 160.0,42.6 L 160.4,42.5 L 160.9,42.3 L 161.3,42.2 L 161.7,42.1 L 162.2,42.0 L 162.6,42.0 L 163.0,41.9 L 163.4,41.8 L 163.9,41.8 L 164.3,41.7 L 164.7,41.7 L 165.2,41.7 L 165.6,41.7 L 166.0,41.7 L 166.4,41.7 L 166.9,41.7 L 167.3,41.7 L 167.7,41.8 L 168.1,41.8 L 168.6,41.9 L 169.0,41.9 L 169.4,42.0 L 169.8,42.1 L 170.3,42.2 L 170.7,42.3 L 171.1,42.4 L 171.5,42.5 L 172.0,42.6 L 172.4,42.8 L 172.8,42.9 L 173.3,43.1 L 173.7,43.3 L 174.1,43.5 L 174.6,43.7 L 175.0,43.9 L 175.4,44.1 L 175.9,44.3 L 176.3,44.6 L 176.8,44.8 L 177.2,45.1 L 177.7,45.3 L 178.1,45.6 L 178.6,45.9 L 179.0,46.2 L 179.6,46.6 L 180.2,47.1 L 180.8,47.5 L 181.3,47.9 L 181.9,48.3 L 182.5,48.8 L 183.0,49.2 L 183.6,49.7 L 184.1,50.2 L 184.7,50.6 L 185.2,51.1 L 185.8,51.6 L 186.3,52.1 L 186.8,52.6 L 187.3,53.1 L 187.9,53.6 L 188.4,54.1 L 188.9,54.6 L 189.4,55.1 L 189.9,55.7 L 190.4,56.2 L 190.9,56.7 L 191.3,57.3 L 191.8,57.8 L 192.3,58.4 L 192.8,59.0 L 193.2,59.5 L 193.7,60.1 L 194.2,60.7 L 194.6,61.3 L 195.1,61.9 L 195.5,62.5 L 195.9,63.1 L 196.4,63.7 L 196.8,64.3 L 197.2,64.9 L 197.6,65.6 L 198.0,66.2 L 198.4,66.8 L 198.8,67.5 L 199.2,68.1 L 199.6,68.8 L 200.0,69.4 L 200.4,70.1 L 200.8,70.7 L 201.2,71.4 L 201.5,72.1 L 201.9,72.8 L 202.2,73.5 L 202.6,74.1 L 202.9,74.8 L 203.3,75.5 L 203.6,76.2 L 203.9,76.9 L 204.3,77.6 L 204.6,78.4 L 204.9,79.1 L 205.2,79.8 L 205.5,80.5 L 205.8,81.3 L 206.1,82.0 L 206.4,82.7 L 206.7,83.5 L 207.0,84.2 L 207.2,84.9 L 207.5,85.7 L 207.8,86.5 L 208.0,87.2 L 208.3,88.0 L 208.5,88.7 L 208.8,89.5 L 209.0,90.3 L 209.2,91.0 L 209.4,91.8 L 209.7,92.6 L 209.9,93.4 L 210.1,94.2 L 210.3,94.9 L 210.5,95.7 L 210.7,96.5 L 210.9,97.3 L 211.0,98.1 L 211.2,98.9 L 211.4,99.7 L 211.5,100.5 L 211.7,101.3 L 211.8,102.1 L 212.0,102.9 L 212.1,103.8 L 212.3,104.6 L 212.4,105.4 L 212.5,106.2 L 212.6,107.0 L 212.7,107.8 L 212.8,108.7 L 212.9,109.5 L 213.0,110.3 L 213.1,111.1 L 213.2,112.0 L 213.2,112.8 L 213.3,113.6 L 213.4,114.5 L 213.4,115.3 L 213.5,116.1 L 213.5,117.0 L 213.6,117.8 L 213.6,118.6 L 213.6,119.5 L 213.6,120.3 L 213.6,121.1 L 213.6,122.0 L 213.6,122.8 L 213.6,123.7 L 213.6,124.5 L 213.6,125.3 L 213.6,126.2 L 213.5,127.0 L 213.5,127.9 L 213.5,128.7 L 213.4,129.6 L 213.3,130.6 L 213.3,131.6 L 213.2,132.5 L 213.1,133.5 L 213.0,134.5 L 212.9,135.5 L 212.7,136.5 L 212.6,137.5 L 212.4,138.4 L 212.3,139.4 L 212.1,140.4 L 211.9,141.3 L 211.7,142.3 L 211.5,143.3 L 211.3,144.2 L 211.1,145.2 L 210.9,146.2 L 210.6,147.1 L 210.4,148.1 L 210.1,149.0 L 209.8,150.0 L 209.6,150.9 L 209.3,151.9 L 209.0,152.8 L 208.6,153.8 L 208.3,154.7 L 208.0,155.6 L 207.6,156.6 L 207.3,157.5 L 206.9,158.4 L 206.5,159.4 L 206.2,160.3 L 205.8,161.2 L 205.4,162.2 L 205.0,163.1 L 204.5,164.0 L 204.1,164.9 L 203.7,165.8 L 203.2,166.7 L 202.7,167.7 L 202.3,168.6 L 201.8,169.5 L 201.3,170.4 L 200.8,171.3 L 200.3,172.2 L 199.8,173.1 L 199.2,174.0 L 198.7,174.9 L 198.1,175.8 L 197.6,176.7 L 197.0,177.5 L 196.4,178.4 L 195.9,179.3 L 195.3,180.2 L 194.7,181.1 L 194.0,182.0 L 193.4,182.8 L 192.8,183.7 L 192.1,184.6 L 191.5,185.4 L 190.8,186.3 L 190.2,187.2 L 189.5,188.0 L 188.8,188.9 L 188.1,189.7 L 187.4,190.6 L 186.7,191.4 L 185.9,192.3 L 185.2,193.1 L 184.5,194.0 L 183.7,194.8 L 183.0,195.7 L 182.2,196.5 L 181.4,197.3 L 180.6,198.2 L 179.9,199.0 L 179.1,199.8 L 178.2,200.7 L 177.4,201.5 L 176.6,202.3 L 175.8,203.1 L 174.9,203.9 L 174.1,204.7 L 173.2,205.6 L 172.4,206.4 L 171.5,207.2 L 170.6,208.0 L 169.7,208.8 L 168.8,209.6 L 167.9,210.4 L 167.0,211.2 L 166.1,212.0 L 165.2,212.9 L 167.0,215.1 L 168.0,214.5 L 169.1,213.8 L 170.1,213.1 L 171.1,212.4 L 172.1,211.7 L 173.1,211.0 L 174.0,210.2 L 175.0,209.5 L 176.0,208.8 L 176.9,208.0 L 177.9,207.3 L 178.8,206.5 L 179.7,205.7 L 180.6,205.0 L 181.5,204.2 L 182.5,203.4 L 183.3,202.6 L 184.2,201.9 L 185.1,201.1 L 186.0,200.3 L 186.8,199.5 L 187.7,198.7 L 188.5,197.9 L 189.4,197.0 L 190.2,196.2 L 191.0,195.4 L 191.8,194.6 L 192.6,193.7 L 193.4,192.9 L 194.2,192.1 L 194.9,191.2 L 195.7,190.4 L 196.5,189.5 L 197.2,188.6 L 197.9,187.8 L 198.7,186.9 L 199.4,186.0 L 200.1,185.1 L 200.8,184.3 L 201.5,183.4 L 202.2,182.5 L 202.8,181.6 L 203.5,180.7 L 204.2,179.8 L 204.8,178.9 L 205.4,178.0 L 206.1,177.0 L 206.7,176.1 L 207.3,175.2 L 207.9,174.3 L 208.4,173.3 L 209.0,172.4 L 209.6,171.4 L 210.1,170.5 L 210.7,169.5 L 211.2,168.6 L 211.7,167.6 L 212.3,166.7 L 212.8,165.7 L 213.3,164.7 L 213.7,163.7 L 214.2,162.8 L 214.7,161.8 L 215.1,160.8 L 215.6,159.8 L 216.0,158.8 L 216.4,157.8 L 216.8,156.8 L 217.2,155.8 L 217.6,154.7 L 218.0,153.7 L 218.3,152.7 L 218.7,151.7 L 219.0,150.6 L 219.3,149.6 L 219.7,148.6 L 220.0,147.5 L 220.3,146.5 L 220.5,145.4 L 220.8,144.4 L 221.1,143.3 L 221.3,142.3 L 221.5,141.2 L 221.8,140.1 L 222.0,139.1 L 222.2,138.0 L 222.4,136.9 L 222.5,135.8 L 222.7,134.7 L 222.9,133.6 L 223.0,132.6 L 223.1,131.5 L 223.2,130.4 L 223.3,129.5 L 223.4,128.6 L 223.5,127.6 L 223.6,126.7 L 223.6,125.8 L 223.7,124.9 L 223.7,124.0 L 223.8,123.1 L 223.8,122.1 L 223.8,121.2 L 223.9,120.3 L 223.9,119.4 L 223.9,118.5 L 223.9,117.6 L 223.9,116.6 L 223.9,115.7 L 223.8,114.8 L 223.8,113.9 L 223.8,113.0 L 223.7,112.1 L 223.7,111.2 L 223.6,110.3 L 223.5,109.3 L 223.5,108.4 L 223.4,107.5 L 223.3,106.6 L 223.2,105.7 L 223.1,104.8 L 223.0,103.9 L 222.9,103.0 L 222.7,102.1 L 222.6,101.2 L 222.5,100.3 L 222.3,99.4 L 222.2,98.5 L 222.0,97.7 L 221.8,96.8 L 221.6,95.9 L 221.5,95.0 L 221.3,94.1 L 221.1,93.2 L 220.9,92.4 L 220.7,91.5 L 220.4,90.6 L 220.2,89.8 L 220.0,88.9 L 219.7,88.0 L 219.5,87.2 L 219.2,86.3 L 219.0,85.5 L 218.7,84.6 L 218.4,83.8 L 218.2,82.9 L 217.9,82.1 L 217.6,81.2 L 217.3,80.4 L 217.0,79.6 L 216.7,78.8 L 216.3,77.9 L 216.0,77.1 L 215.7,76.3 L 215.3,75.5 L 215.0,74.7 L 214.6,73.9 L 214.3,73.1 L 213.9,72.3 L 213.5,71.5 L 213.1,70.7 L 212.8,69.9 L 212.4,69.2 L 212.0,68.4 L 211.5,67.6 L 211.1,66.8 L 210.7,66.1 L 210.3,65.3 L 209.8,64.6 L 209.4,63.9 L 209.0,63.1 L 208.5,62.4 L 208.0,61.7 L 207.6,60.9 L 207.1,60.2 L 206.6,59.5 L 206.1,58.8 L 205.6,58.1 L 205.1,57.4 L 204.6,56.7 L 204.1,56.0 L 203.6,55.4 L 203.1,54.7 L 202.5,54.0 L 202.0,53.4 L 201.4,52.7 L 200.9,52.1 L 200.3,51.5 L 199.8,50.8 L 199.2,50.2 L 198.6,49.6 L 198.0,49.0 L 197.4,48.4 L 196.8,47.8 L 196.2,47.2 L 195.6,46.6 L 195.0,46.1 L 194.4,45.5 L 193.8,44.9 L 193.1,44.4 L 192.5,43.8 L 191.9,43.3 L 191.2,42.8 L 190.5,42.3 L 189.9,41.7 L 189.2,41.2 L 188.5,40.8 L 187.9,40.3 L 187.2,39.8 L 186.5,39.3 L 185.8,38.9 L 185.1,38.4 L 184.4,38.0 L 183.8,37.6 L 183.1,37.2 L 182.5,36.9 L 181.9,36.6 L 181.3,36.3 L 180.6,36.0 L 180.0,35.7 L 179.4,35.4 L 178.7,35.2 L 178.1,34.9 L 177.5,34.7 L 176.9,34.5 L 176.2,34.3 L 175.6,34.1 L 174.9,33.9 L 174.3,33.8 L 173.7,33.7 L 173.0,33.5 L 172.4,33.4 L 171.8,33.3 L 171.1,33.3 L 170.5,33.2 L 169.9,33.2 L 169.2,33.1 L 168.6,33.1 L 168.0,33.1 L 167.4,33.1 L 166.7,33.1 L 166.1,33.2 L 165.5,33.3 L 164.9,33.3 L 164.3,33.4 L 163.7,33.5 L 163.1,33.6 L 162.5,33.8 L 161.9,33.9 L 161.3,34.1 L 160.7,34.2 L 160.1,34.4 L 159.5,34.6 L 158.9,34.8 L 158.3,35.1 L 157.8,35.3 L 157.2,35.5 L 156.7,35.8 L 156.1,36.1 L 155.6,36.4 L 155.0,36.7 L 154.5,37.0 L 153.9,37.3 L 153.4,37.6 L 152.9,38.0 L 152.4,38.4 L 151.9,38.7 L 151.3,39.1 L 150.8,39.5 L 150.3,39.9 L 149.9,40.3 L 149.4,40.8 L 148.9,41.2 L 148.4,41.6 L 147.9,42.1 L 147.5,42.6 L 147.0,43.0 L 146.6,43.5 L 146.1,44.0 L 145.7,44.5 L 145.2,45.1 L 144.8,45.6 L 144.4,46.1 L 143.9,46.7 L 143.5,47.2 L 143.1,47.8 L 142.7,48.4 L 142.3,49.0 L 141.9,49.6 L 141.5,50.2 L 141.2,50.8 L 140.8,51.4 L 140.4,52.1 L 140.0,52.7 L 139.7,53.4 L 139.3,54.1 L 139.0,54.7 L 138.6,55.4 L 138.3,56.1 L 138.0,56.8 L 137.7,57.5 L 137.4,58.3 L 137.1,59.0 L 136.8,59.7 L 136.5,60.5 L 136.3,61.3 Z" fill="#16225C" fill-opacity="0.98"/>
  <path d="M 104.5,59.8 L 104.1,59.2 L 103.6,58.6 L 103.2,58.0 L 102.8,57.4 L 102.3,56.9 L 101.8,56.3 L 101.4,55.8 L 100.9,55.2 L 100.4,54.7 L 100.0,54.2 L 99.5,53.7 L 99.0,53.2 L 98.5,52.7 L 98.0,52.2 L 97.5,51.8 L 97.0,51.3 L 96.5,50.9 L 96.0,50.4 L 95.5,50.0 L 95.0,49.6 L 94.5,49.2 L 94.0,48.8 L 93.4,48.5 L 92.9,48.1 L 92.4,47.7 L 91.8,47.4 L 91.3,47.1 L 90.8,46.8 L 90.2,46.4 L 89.7,46.2 L 89.1,45.9 L 88.6,45.6 L 88.0,45.3 L 87.4,45.1 L 86.9,44.9 L 86.3,44.6 L 85.7,44.4 L 85.2,44.2 L 84.6,44.0 L 84.0,43.9 L 83.4,43.7 L 82.9,43.6 L 82.3,43.4 L 81.7,43.3 L 81.1,43.2 L 80.5,43.1 L 79.9,43.0 L 79.3,42.9 L 78.7,42.9 L 78.1,42.9 L 77.5,42.8 L 76.9,42.8 L 76.3,42.8 L 75.7,42.8 L 75.1,42.9 L 74.5,42.9 L 73.9,43.0 L 73.3,43.1 L 72.7,43.1 L 72.1,43.3 L 71.5,43.4 L 70.9,43.5 L 70.3,43.7 L 69.7,43.8 L 69.1,44.0 L 68.5,44.2 L 67.9,44.4 L 67.3,44.6 L 66.7,44.9 L 66.2,45.1 L 65.6,45.4 L 65.0,45.7 L 64.4,45.9 L 63.8,46.3 L 63.3,46.6 L 62.7,46.9 L 62.1,47.3 L 61.6,47.6 L 61.0,48.0 L 60.5,48.4 L 59.9,48.8 L 59.4,49.2 L 58.8,49.7 L 58.3,50.1 L 57.8,50.6 L 57.2,51.1 L 56.5,51.7 L 56.0,52.2 L 55.4,52.8 L 54.8,53.4 L 54.2,54.0 L 53.6,54.6 L 53.1,55.2 L 52.5,55.8 L 52.0,56.4 L 51.4,57.0 L 50.9,57.6 L 50.4,58.2 L 49.9,58.9 L 49.3,59.5 L 48.8,60.2 L 48.3,60.8 L 47.8,61.5 L 47.4,62.2 L 46.9,62.8 L 46.4,63.5 L 46.0,64.2 L 45.5,64.9 L 45.1,65.6 L 44.6,66.3 L 44.2,67.0 L 43.8,67.7 L 43.3,68.5 L 42.9,69.2 L 42.5,69.9 L 42.1,70.6 L 41.7,71.4 L 41.4,72.1 L 41.0,72.9 L 40.6,73.6 L 40.3,74.4 L 39.9,75.2 L 39.6,75.9 L 39.2,76.7 L 38.9,77.5 L 38.6,78.3 L 38.2,79.0 L 37.9,79.8 L 37.6,80.6 L 37.3,81.4 L 37.1,82.2 L 36.8,83.0 L 36.5,83.8 L 36.2,84.7 L 36.0,85.5 L 35.7,86.3 L 35.5,87.1 L 35.2,87.9 L 35.0,88.8 L 34.8,89.6 L 34.6,90.4 L 34.4,91.3 L 34.2,92.1 L 34.0,92.9 L 33.8,93.8 L 33.6,94.6 L 33.4,95.5 L 33.3,96.3 L 33.1,97.2 L 33.0,98.1 L 32.8,98.9 L 32.7,99.8 L 32.6,100.6 L 32.4,101.5 L 32.3,102.4 L 32.2,103.3 L 32.1,104.1 L 32.0,105.0 L 31.9,105.9 L 31.9,106.7 L 31.8,107.6 L 31.7,108.5 L 31.7,109.4 L 31.6,110.3 L 31.6,111.2 L 31.6,112.0 L 31.5,112.9 L 31.5,113.8 L 31.5,114.7 L 31.5,115.6 L 31.5,116.5 L 31.5,117.4 L 31.5,118.3 L 31.5,119.1 L 31.6,120.0 L 31.6,120.9 L 31.7,121.8 L 31.7,122.7 L 31.8,123.6 L 31.8,124.5 L 31.9,125.4 L 32.0,126.3 L 32.1,127.2 L 32.2,128.1 L 32.3,129.0 L 32.4,129.9 L 32.5,130.7 L 32.6,131.6 L 32.8,132.5 L 32.9,133.4 L 33.1,134.3 L 33.2,135.2 L 33.4,136.1 L 33.6,137.0 L 33.7,137.8 L 33.9,138.7 L 34.1,139.6 L 34.3,140.5 L 34.5,141.4 L 34.7,142.3 L 34.9,143.1 L 35.2,144.0 L 35.4,144.9 L 35.6,145.8 L 35.9,146.6 L 36.2,147.6 L 36.5,148.7 L 36.8,149.7 L 37.1,150.7 L 37.5,151.8 L 37.8,152.8 L 38.2,153.8 L 38.6,154.8 L 39.0,155.8 L 39.4,156.8 L 39.8,157.8 L 40.2,158.8 L 40.6,159.7 L 41.1,160.7 L 41.5,161.7 L 42.0,162.7 L 42.5,163.6 L 42.9,164.6 L 43.4,165.5 L 43.9,166.4 L 44.5,167.4 L 45.0,168.3 L 45.5,169.2 L 46.1,170.1 L 46.6,171.1 L 47.2,172.0 L 47.8,172.9 L 48.3,173.8 L 48.9,174.6 L 49.5,175.5 L 50.2,176.4 L 50.8,177.3 L 51.4,178.1 L 52.1,179.0 L 52.7,179.8 L 53.4,180.7 L 54.0,181.5 L 54.7,182.4 L 55.4,183.2 L 56.1,184.0 L 56.8,184.8 L 57.5,185.7 L 58.3,186.5 L 59.0,187.3 L 59.7,188.1 L 60.5,188.8 L 61.2,189.6 L 62.0,190.4 L 62.8,191.2 L 63.6,191.9 L 64.4,192.7 L 65.2,193.4 L 66.0,194.2 L 66.8,194.9 L 67.6,195.7 L 68.5,196.4 L 69.3,197.1 L 70.2,197.8 L 71.0,198.6 L 71.9,199.3 L 72.8,200.0 L 73.7,200.7 L 74.6,201.3 L 75.5,202.0 L 76.4,202.7 L 77.3,203.4 L 78.2,204.0 L 79.1,204.7 L 80.1,205.3 L 81.0,206.0 L 82.0,206.6 L 83.0,207.3 L 83.9,207.9 L 84.9,208.5 L 85.9,209.1 L 86.9,209.7 L 87.9,210.3 L 88.9,210.9 L 89.9,211.5 L 90.9,212.1 L 92.0,212.7 L 93.0,213.3 L 94.0,213.8 L 95.1,214.4 L 96.1,214.9 L 97.2,215.5 L 98.3,216.0 L 99.4,216.5 L 100.5,217.0 L 101.8,214.5 L 100.9,213.8 L 99.9,213.2 L 98.9,212.6 L 97.9,211.9 L 96.9,211.3 L 95.9,210.6 L 95.0,210.0 L 94.0,209.3 L 93.1,208.7 L 92.1,208.0 L 91.2,207.3 L 90.3,206.7 L 89.4,206.0 L 88.5,205.3 L 87.6,204.7 L 86.7,204.0 L 85.8,203.3 L 84.9,202.6 L 84.0,201.9 L 83.2,201.2 L 82.3,200.5 L 81.5,199.8 L 80.6,199.1 L 79.8,198.4 L 79.0,197.7 L 78.1,197.0 L 77.3,196.3 L 76.5,195.5 L 75.8,194.8 L 75.0,194.1 L 74.2,193.3 L 73.4,192.6 L 72.7,191.9 L 71.9,191.1 L 71.2,190.4 L 70.5,189.6 L 69.7,188.8 L 69.0,188.1 L 68.3,187.3 L 67.6,186.5 L 66.9,185.8 L 66.3,185.0 L 65.6,184.2 L 64.9,183.4 L 64.3,182.6 L 63.7,181.8 L 63.0,181.0 L 62.4,180.2 L 61.8,179.4 L 61.2,178.6 L 60.6,177.8 L 60.0,177.0 L 59.4,176.2 L 58.8,175.4 L 58.3,174.5 L 57.7,173.7 L 57.2,172.9 L 56.7,172.0 L 56.1,171.2 L 55.6,170.4 L 55.1,169.5 L 54.6,168.7 L 54.1,167.8 L 53.7,166.9 L 53.2,166.1 L 52.7,165.2 L 52.3,164.3 L 51.9,163.5 L 51.4,162.6 L 51.0,161.7 L 50.6,160.8 L 50.2,159.9 L 49.8,159.0 L 49.4,158.1 L 49.1,157.2 L 48.7,156.3 L 48.3,155.4 L 48.0,154.5 L 47.7,153.6 L 47.3,152.7 L 47.0,151.8 L 46.7,150.8 L 46.4,149.9 L 46.1,149.0 L 45.9,148.0 L 45.6,147.1 L 45.4,146.2 L 45.1,145.2 L 44.9,144.2 L 44.7,143.4 L 44.5,142.6 L 44.3,141.8 L 44.1,141.0 L 44.0,140.2 L 43.8,139.3 L 43.6,138.5 L 43.5,137.7 L 43.3,136.9 L 43.2,136.1 L 43.1,135.3 L 43.0,134.5 L 42.8,133.6 L 42.7,132.8 L 42.6,132.0 L 42.5,131.2 L 42.4,130.4 L 42.3,129.5 L 42.2,128.7 L 42.2,127.9 L 42.1,127.1 L 42.0,126.3 L 42.0,125.5 L 41.9,124.6 L 41.9,123.8 L 41.8,123.0 L 41.8,122.2 L 41.8,121.4 L 41.7,120.6 L 41.7,119.7 L 41.7,118.9 L 41.7,118.1 L 41.7,117.3 L 41.7,116.5 L 41.7,115.7 L 41.7,114.9 L 41.8,114.1 L 41.8,113.3 L 41.8,112.5 L 41.9,111.7 L 41.9,110.9 L 42.0,110.1 L 42.0,109.3 L 42.1,108.5 L 42.2,107.7 L 42.3,106.9 L 42.3,106.1 L 42.4,105.3 L 42.5,104.5 L 42.6,103.7 L 42.7,102.9 L 42.8,102.1 L 43.0,101.4 L 43.1,100.6 L 43.2,99.8 L 43.4,99.0 L 43.5,98.3 L 43.6,97.5 L 43.8,96.7 L 44.0,96.0 L 44.1,95.2 L 44.3,94.5 L 44.5,93.7 L 44.7,93.0 L 44.8,92.2 L 45.0,91.5 L 45.2,90.7 L 45.4,90.0 L 45.7,89.2 L 45.9,88.5 L 46.1,87.8 L 46.3,87.1 L 46.6,86.3 L 46.8,85.6 L 47.0,84.9 L 47.3,84.2 L 47.6,83.5 L 47.8,82.8 L 48.1,82.1 L 48.4,81.4 L 48.6,80.7 L 48.9,80.0 L 49.2,79.3 L 49.5,78.6 L 49.8,77.9 L 50.1,77.3 L 50.4,76.6 L 50.8,75.9 L 51.1,75.3 L 51.4,74.6 L 51.8,74.0 L 52.1,73.3 L 52.5,72.7 L 52.8,72.1 L 53.2,71.4 L 53.5,70.8 L 53.9,70.2 L 54.3,69.6 L 54.7,68.9 L 55.1,68.3 L 55.4,67.7 L 55.8,67.1 L 56.2,66.5 L 56.7,65.9 L 57.1,65.4 L 57.5,64.8 L 57.9,64.2 L 58.4,63.6 L 58.8,63.1 L 59.2,62.5 L 59.7,62.0 L 60.1,61.4 L 60.6,60.9 L 61.1,60.4 L 61.5,59.8 L 62.0,59.3 L 62.5,58.8 L 63.0,58.3 L 63.5,57.8 L 64.0,57.3 L 64.4,56.9 L 64.8,56.5 L 65.2,56.2 L 65.6,55.8 L 65.9,55.5 L 66.3,55.2 L 66.7,54.8 L 67.1,54.5 L 67.5,54.3 L 67.9,54.0 L 68.3,53.7 L 68.7,53.4 L 69.1,53.2 L 69.5,53.0 L 69.9,52.7 L 70.3,52.5 L 70.7,52.3 L 71.1,52.1 L 71.5,51.9 L 71.9,51.8 L 72.3,51.6 L 72.7,51.4 L 73.1,51.3 L 73.5,51.1 L 73.9,51.0 L 74.3,50.9 L 74.7,50.8 L 75.2,50.7 L 75.6,50.6 L 76.0,50.5 L 76.4,50.4 L 76.8,50.4 L 77.3,50.3 L 77.7,50.3 L 78.1,50.2 L 78.5,50.2 L 79.0,50.2 L 79.4,50.2 L 79.8,50.2 L 80.3,50.2 L 80.7,50.2 L 81.2,50.3 L 81.6,50.3 L 82.1,50.4 L 82.5,50.4 L 83.0,50.5 L 83.4,50.6 L 83.9,50.7 L 84.4,50.8 L 84.8,50.9 L 85.3,51.0 L 85.8,51.1 L 86.3,51.3 L 86.7,51.4 L 87.2,51.6 L 87.7,51.8 L 88.2,52.0 L 88.7,52.2 L 89.1,52.4 L 89.6,52.6 L 90.1,52.9 L 90.6,53.1 L 91.1,53.4 L 91.6,53.6 L 92.1,53.9 L 92.6,54.2 L 93.1,54.5 L 93.6,54.8 L 94.1,55.1 L 94.6,55.5 L 95.1,55.8 L 95.6,56.2 L 96.1,56.5 L 96.6,56.9 L 97.1,57.3 L 97.6,57.7 L 98.1,58.1 L 98.6,58.5 L 99.1,58.9 L 99.7,59.4 L 100.2,59.8 L 100.7,60.3 L 101.2,60.8 L 101.7,61.2 L 102.3,61.7 Z" fill="#16225C" fill-opacity="0.98"/>
</svg>