<svg xmlns="http://www.w3.org/2000/svg" viewBox="0 0 256 256" width="256" height="256">
  <defs><linearGradient id="bg" x1="0" y1="0" x2="1" y2="1">
    <stop offset="0" stop-color="#1A2A6B"/><stop offset="1" stop-color="#2B4FD8"/>
  </linearGradient></defs>
  <rect width="256" height="256" rx="56" fill="url(#bg)"/>
  <path d="M 138.8,64.2 L 139.2,63.5 L 139.7,62.7 L 140.1,62.0 L 140.6,61.3 L 141.0,60.6 L 141.4,59.9 L 141.8,59.3 L 142.3,58.6 L 142.7,58.0 L 143.1,57.3 L 143.6,56.7 L 144.0,56.1 L 144.4,55.5 L 144.9,54.9 L 145.3,54.3 L 145.7,53.7 L 146.2,53.2 L 146.6,52.6 L 147.0,52.1 L 147.5,51.5 L 147.9,51.0 L 148.4,50.5 L 148.8,50.1 L 149.3,49.6 L 149.7,49.1 L 150.2,48.7 L 150.6,48.2 L 151.1,47.8 L 151.5,47.4 L 152.0,47.0 L 152.4,46.6 L 152.9,46.2 L 153.3,45.9 L 153.8,45.5 L 154.2,45.2 L 154.7,44.8 L 155.1,44.5 L 155.6,44.2 L 156.0,43.9 L 156.5,43.6 L 156.9,43.4 L 157.3,43.1 L 157.8,42.9 L 158.2,42.6 L 158.7,42.4 L 159.1,42.2 L 159.5,42.0 L 160.0,41.8 L 160.4,41.6 L 160.8,41.5 L 161.2,41.3 L 161.7,41.2 L 162.1,41.0 L 162.5,40.9 L 162.9,40.8 L 163.3,40.7 L 163.8,40.6 L 164.2,40.5 L 164.6,40.5 L 165.0,40.4 L 165.4,40.3 L 165.8,40.3 L 166.2,40.3 L 166.6,40.2 L 167.0,40.2 L 167.4,40.2 L 167.8,40.2 L 168.2,40.2 L 168.6,40.3 L 169.0,40.3 L 169.4,40.3 L 169.8,40.4 L 170.1,40.4 L 170.5,40.5 L 170.9,40.6 L 171.3,40.6 L 171.7,40.7 L 172.1,40.8 L 172.5,40.9 L 172.9,41.0 L 173.3,41.2 L 173.7,41.3 L 174.1,41.4 L 174.5,41.6 L 174.9,41.8 L 175.3,41.9 L 175.7,42.1 L 176.1,42.3 L 176.6,42.5 L 177.0,42.7 L 177.4,43.0 L 177.8,43.2 L 178.2,43.5 L 178.7,43.7 L 179.1,44.0 L 179.5,44.3 L 179.9,44.6 L 180.4,44.9 L 181.0,45.3 L 181.6,45.7 L 182.1,46.1 L 182.7,46.6 L 183.3,47.0 L 183.9,47.5 L 184.4,47.9 L 185.0,48.4 L 185.5,48.9 L 186.1,49.4 L 186.6,49.8 L 187.2,50.3 L 187.7,50.8 L 188.2,51.3 L 188.7,51.8 L 189.3,52.4 L 189.8,52.9 L 190.3,53.4 L 190.8,54.0 L 191.3,54.5 L 191.8,55.0 L 192.3,55.6 L 192.8,56.2 L 193.3,56.7 L 193.7,57.3 L 194.2,57.9 L 194.7,58.5 L 195.2,59.0 L 195.6,59.6 L 196.1,60.2 L 196.5,60.8 L 197.0,61.5 L 197.4,62.1 L 197.9,62.7 L 198.3,63.3 L 198.7,64.0 L 199.1,64.6 L 199.6,65.2 L 200.0,65.9 L 200.4,66.6 L 200.8,67.2 L 201.2,67.9 L 201.6,68.6 L 202.0,69.2 L 202.3,69.9 L 202.7,70.6 L 203.1,71.3 L 203.5,72.0 L 203.8,72.7 L 204.2,73.4 L 204.5,74.1 L 204.9,74.8 L 205.2,75.5 L 205.6,76.2 L 205.9,77.0 L 206.2,77.7 L 206.5,78.4 L 206.9,79.2 L 207.2,79.9 L 207.5,80.7 L 207.8,81.4 L 208.1,82.2 L 208.4,82.9 L 208.7,83.7 L 208.9,84.4 L 209.2,85.2 L 209.5,86.0 L 209.7,86.8 L 210.0,87.5 L 210.3,88.3 L 210.5,89.1 L 210.7,89.9 L 211.0,90.7 L 211.2,91.5 L 211.4,92.3 L 211.7,93.1 L 211.9,93.9 L 212.1,94.7 L 212.3,95.5 L 212.5,96.3 L 212.7,97.1 L 212.9,98.0 L 213.0,98.8 L 213.2,99.6 L 213.4,100.4 L 213.5,101.3 L 213.7,102.1 L 213.9,102.9 L 214.0,103.8 L 214.1,104.6 L 214.3,105.4 L 214.4,106.3 L 214.5,107.1 L 214.6,108.0 L 214.7,108.8 L 214.8,109.6 L 214.9,110.5 L 215.0,111.3 L 215.1,112.2 L 215.2,113.1 L 215.3,113.9 L 215.3,114.8 L 215.4,115.6 L 215.5,116.5 L 215.5,117.3 L 215.5,118.2 L 215.6,119.1 L 215.6,119.9 L 215.6,120.8 L 215.6,121.6 L 215.7,122.5 L 215.7,123.4 L 215.7,124.2 L 215.7,125.1 L 215.6,126.0 L 215.6,126.8 L 215.6,127.7 L 215.6,128.6 L 215.5,129.4 L 215.5,130.3 L 215.4,131.4 L 215.3,132.4 L 215.3,133.4 L 215.2,134.4 L 215.1,135.4 L 214.9,136.4 L 214.8,137.4 L 214.7,138.4 L 214.5,139.4 L 214.4,140.4 L 214.2,141.4 L 214.0,142.4 L 213.8,143.4 L 213.6,144.4 L 213.4,145.4 L 213.2,146.4 L 213.0,147.4 L 212.7,148.4 L 212.5,149.4 L 212.2,150.3 L 212.0,151.3 L 211.7,152.3 L 211.4,153.3 L 211.1,154.2 L 210.8,155.2 L 210.4,156.2 L 210.1,157.2 L 209.8,158.1 L 209.4,159.1 L 209.0,160.1 L 208.7,161.0 L 208.3,162.0 L 207.9,162.9 L 207.5,163.9 L 207.0,164.9 L 206.6,165.8 L 206.2,166.8 L 205.7,167.7 L 205.3,168.7 L 204.8,169.6 L 204.3,170.5 L 203.8,171.5 L 203.3,172.4 L 202.8,173.4 L 202.3,174.3 L 201.8,175.2 L 201.2,176.2 L 200.7,177.1 L 200.1,178.0 L 199.6,179.0 L 199.0,179.9 L 198.4,180.8 L 197.8,181.7 L 197.2,182.7 L 196.6,183.6 L 195.9,184.5 L 195.3,185.4 L 194.7,186.3 L 194.0,187.2 L 193.3,188.1 L 192.7,189.1 L 192.0,190.0 L 191.3,190.9 L 190.6,191.8 L 189.9,192.7 L 189.1,193.6 L 188.4,194.4 L 187.7,195.3 L 186.9,196.2 L 186.1,197.1 L 185.4,198.0 L 184.6,198.9 L 183.8,199.8 L 183.0,200.6 L 182.2,201.5 L 181.4,202.4 L 180.6,203.3 L 179.7,204.1 L 178.9,205.0 L 178.0,205.9 L 177.2,206.7 L 176.3,207.6 L 175.4,208.4 L 174.5,209.3 L 173.6,210.2 L 172.7,211.0 L 171.8,211.9 L 170.9,212.7 L 170.0,213.6 L 169.0,214.4 L 168.1,215.3 L 167.1,216.1 L 166.2,216.9 L 165.2,217.8 L 164.3,218.6 L 163.3,219.5 L 162.3,220.3 L 161.3,221.2 L 164.4,225.5 L 165.6,224.9 L 166.7,224.2 L 167.8,223.5 L 169.0,222.8 L 170.1,222.1 L 171.2,221.3 L 172.3,220.6 L 173.3,219.9 L 174.4,219.1 L 175.5,218.4 L 176.5,217.6 L 177.6,216.8 L 178.6,216.1 L 179.6,215.3 L 180.7,214.5 L 181.7,213.7 L 182.7,212.9 L 183.7,212.1 L 184.7,211.3 L 185.6,210.5 L 186.6,209.7 L 187.6,208.8 L 188.5,208.0 L 189.4,207.2 L 190.4,206.3 L 191.3,205.5 L 192.2,204.6 L 193.1,203.8 L 194.0,202.9 L 194.9,202.1 L 195.8,201.2 L 196.7,200.3 L 197.5,199.4 L 198.4,198.5 L 199.2,197.7 L 200.0,196.8 L 200.9,195.9 L 201.7,194.9 L 202.5,194.0 L 203.3,193.1 L 204.1,192.2 L 204.8,191.3 L 205.6,190.3 L 206.4,189.4 L 207.1,188.5 L 207.8,187.5 L 208.6,186.6 L 209.3,185.6 L 210.0,184.6 L 210.7,183.7 L 211.4,182.7 L 212.1,181.7 L 212.7,180.7 L 213.4,179.7 L 214.0,178.7 L 214.7,177.7 L 215.3,176.7 L 215.9,175.7 L 216.5,174.7 L 217.1,173.7 L 217.7,172.7 L 218.2,171.6 L 218.8,170.6 L 219.3,169.6 L 219.9,168.5 L 220.4,167.5 L 220.9,166.4 L 221.4,165.4 L 221.9,164.3 L 222.4,163.2 L 222.9,162.2 L 223.3,161.1 L 223.8,160.0 L 224.2,158.9 L 224.6,157.8 L 225.0,156.7 L 225.4,155.6 L 225.8,154.5 L 226.2,153.4 L 226.5,152.3 L 226.9,151.2 L 227.2,150.1 L 227.5,149.0 L 227.9,147.8 L 228.2,146.7 L 228.4,145.6 L 228.7,144.4 L 229.0,143.3 L 229.2,142.1 L 229.5,141.0 L 229.7,139.8 L 229.9,138.6 L 230.1,137.5 L 230.3,136.3 L 230.4,135.1 L 230.6,133.9 L 230.7,132.8 L 230.8,131.6 L 231.0,130.7 L 231.1,129.7 L 231.1,128.7 L 231.2,127.7 L 231.3,126.7 L 231.4,125.7 L 231.4,124.7 L 231.5,123.8 L 231.5,122.8 L 231.6,121.8 L 231.6,120.8 L 231.6,119.8 L 231.6,118.8 L 231.6,117.8 L 231.6,116.9 L 231.6,115.9 L 231.6,114.9 L 231.5,113.9 L 231.5,112.9 L 231.5,111.9 L 231.4,111.0 L 231.3,110.0 L 231.3,109.0 L 231.2,108.0 L 231.1,107.0 L 231.0,106.1 L 230.9,105.1 L 230.8,104.1 L 230.7,103.2 L 230.6,102.2 L 230.4,101.2 L 230.3,100.2 L 230.1,99.3 L 230.0,98.3 L 229.8,97.4 L 229.7,96.4 L 229.5,95.5 L 229.3,94.5 L 229.1,93.5 L 228.9,92.6 L 228.7,91.7 L 228.5,90.7 L 228.2,89.8 L 228.0,88.8 L 227.8,87.9 L 227.5,87.0 L 227.3,86.0 L 227.0,85.1 L 226.7,84.2 L 226.4,83.3 L 226.2,82.3 L 225.9,81.4 L 225.6,80.5 L 225.2,79.6 L 224.9,78.7 L 224.6,77.8 L 224.3,76.9 L 223.9,76.0 L 223.6,75.1 L 223.2,74.3 L 222.9,73.4 L 222.5,72.5 L 222.1,71.6 L 221.7,70.8 L 221.4,69.9 L 221.0,69.0 L 220.5,68.2 L 220.1,67.3 L 219.7,66.5 L 219.3,65.7 L 218.8,64.8 L 218.4,64.0 L 218.0,63.2 L 217.5,62.4 L 217.0,61.5 L 216.6,60.7 L 216.1,59.9 L 215.6,59.1 L 215.1,58.3 L 214.6,57.6 L 214.1,56.8 L 213.6,56.0 L 213.0,55.2 L 212.5,54.5 L 212.0,53.7 L 211.4,53.0 L 210.9,52.2 L 210.3,51.5 L 209.7,50.8 L 209.2,50.0 L 208.6,49.3 L 208.0,48.6 L 207.4,47.9 L 206.8,47.2 L 206.2,46.5 L 205.6,45.8 L 205.0,45.2 L 204.3,44.5 L 203.7,43.8 L 203.0,43.2 L 202.4,42.5 L 201.7,41.9 L 201.1,41.3 L 200.4,40.7 L 199.7,40.1 L 199.0,39.4 L 198.4,38.9 L 197.7,38.3 L 196.9,37.7 L 196.2,37.1 L 195.5,36.6 L 194.8,36.0 L 194.1,35.5 L 193.3,34.9 L 192.6,34.4 L 191.8,33.9 L 191.1,33.4 L 190.3,32.9 L 189.5,32.4 L 188.8,31.9 L 188.1,31.5 L 187.4,31.1 L 186.7,30.7 L 186.0,30.4 L 185.3,30.0 L 184.6,29.7 L 183.9,29.4 L 183.2,29.1 L 182.4,28.8 L 181.7,28.5 L 181.0,28.3 L 180.3,28.1 L 179.6,27.8 L 178.9,27.6 L 178.1,27.5 L 177.4,27.3 L 176.7,27.1 L 176.0,27.0 L 175.2,26.9 L 174.5,26.8 L 173.8,26.7 L 173.1,26.7 L 172.4,26.6 L 171.6,26.6 L 170.9,26.6 L 170.2,26.6 L 169.5,26.6 L 168.8,26.6 L 168.1,26.7 L 167.4,26.8 L 166.7,26.9 L 166.0,27.0 L 165.3,27.1 L 164.6,27.2 L 163.9,27.4 L 163.2,27.6 L 162.5,27.7 L 161.9,27.9 L 161.2,28.2 L 160.6,28.4 L 159.9,28.6 L 159.3,28.9 L 158.6,29.2 L 158.0,29.5 L 157.4,29.8 L 156.7,30.1 L 156.1,30.4 L 155.5,30.8 L 154.9,31.1 L 154.3,31.5 L 153.7,31.9 L 153.1,32.3 L 152.6,32.7 L 152.0,33.1 L 151.4,33.5 L 150.9,34.0 L 150.3,34.4 L 149.8,34.9 L 149.3,35.4 L 148.7,35.9 L 148.2,36.4 L 147.7,36.9 L 147.2,37.4 L 146.7,38.0 L 146.2,38.5 L 145.7,39.1 L 145.2,39.6 L 144.8,40.2 L 144.3,40.8 L 143.8,41.4 L 143.4,42.0 L 142.9,42.6 L 142.5,43.3 L 142.1,43.9 L 141.6,44.5 L 141.2,45.2 L 140.8,45.9 L 140.4,46.6 L 140.0,47.2 L 139.6,47.9 L 139.2,48.6 L 138.9,49.4 L 138.5,50.1 L 138.1,50.8 L 137.8,51.6 L 137.4,52.3 L 137.1,53.1 L 136.7,53.9 L 136.4,54.7 L 136.1,55.4 L 135.8,56.3 L 135.5,57.1 L 135.2,57.9 L 134.9,58.7 L 134.6,59.6 L 134.4,60.4 L 134.1,61.3 L 133.9,62.2 Z" fill="#FFFFFF"/>
  <path d="M 107.0,60.3 L 106.6,59.6 L 106.2,58.8 L 105.8,58.1 L 105.4,57.4 L 104.9,56.7 L 104.5,56.0 L 104.0,55.4 L 103.5,54.7 L 103.1,54.1 L 102.6,53.4 L 102.1,52.8 L 101.6,52.2 L 101.1,51.6 L 100.6,51.0 L 100.1,50.4 L 99.6,49.9 L 99.1,49.3 L 98.6,48.8 L 98.0,48.2 L 97.5,47.7 L 97.0,47.2 L 96.4,46.7 L 95.9,46.2 L 95.3,45.7 L 94.8,45.3 L 94.2,44.8 L 93.7,44.4 L 93.1,43.9 L 92.5,43.5 L 92.0,43.1 L 91.4,42.7 L 90.8,42.3 L 90.2,42.0 L 89.6,41.6 L 89.0,41.2 L 88.4,40.9 L 87.8,40.6 L 87.2,40.3 L 86.6,40.0 L 85.9,39.7 L 85.3,39.4 L 84.7,39.2 L 84.0,38.9 L 83.4,38.7 L 82.8,38.5 L 82.1,38.3 L 81.5,38.1 L 80.8,37.9 L 80.1,37.7 L 79.5,37.6 L 78.8,37.5 L 78.2,37.3 L 77.5,37.2 L 76.8,37.2 L 76.1,37.1 L 75.4,37.0 L 74.8,37.0 L 74.1,37.0 L 73.4,37.0 L 72.7,37.0 L 72.0,37.0 L 71.3,37.1 L 70.7,37.1 L 70.0,37.2 L 69.3,37.3 L 68.6,37.4 L 67.9,37.6 L 67.2,37.7 L 66.5,37.9 L 65.9,38.0 L 65.2,38.2 L 64.5,38.5 L 63.8,38.7 L 63.2,38.9 L 62.5,39.2 L 61.8,39.5 L 61.2,39.8 L 60.5,40.1 L 59.9,40.4 L 59.2,40.8 L 58.6,41.1 L 57.9,41.5 L 57.3,41.9 L 56.6,42.3 L 56.0,42.7 L 55.4,43.1 L 54.8,43.6 L 54.2,44.1 L 53.5,44.5 L 52.9,45.0 L 52.3,45.5 L 51.7,46.1 L 51.0,46.7 L 50.4,47.3 L 49.7,48.0 L 49.1,48.6 L 48.5,49.2 L 47.8,49.9 L 47.2,50.5 L 46.6,51.2 L 46.0,51.8 L 45.4,52.5 L 44.8,53.2 L 44.3,53.9 L 43.7,54.5 L 43.1,55.2 L 42.6,55.9 L 42.0,56.7 L 41.5,57.4 L 41.0,58.1 L 40.4,58.8 L 39.9,59.6 L 39.4,60.3 L 38.9,61.1 L 38.4,61.8 L 38.0,62.6 L 37.5,63.4 L 37.0,64.1 L 36.6,64.9 L 36.1,65.7 L 35.7,66.5 L 35.2,67.3 L 34.8,68.1 L 34.4,68.9 L 34.0,69.7 L 33.6,70.5 L 33.2,71.3 L 32.8,72.2 L 32.4,73.0 L 32.1,73.8 L 31.7,74.7 L 31.4,75.5 L 31.0,76.4 L 30.7,77.2 L 30.4,78.1 L 30.0,78.9 L 29.7,79.8 L 29.4,80.7 L 29.1,81.6 L 28.8,82.4 L 28.5,83.3 L 28.3,84.2 L 28.0,85.1 L 27.8,86.0 L 27.5,86.9 L 27.3,87.8 L 27.0,88.7 L 26.8,89.6 L 26.6,90.5 L 26.4,91.4 L 26.2,92.3 L 26.0,93.2 L 25.8,94.1 L 25.6,95.1 L 25.5,96.0 L 25.3,96.9 L 25.1,97.8 L 25.0,98.8 L 24.9,99.7 L 24.7,100.6 L 24.6,101.6 L 24.5,102.5 L 24.4,103.4 L 24.3,104.4 L 24.2,105.3 L 24.1,106.3 L 24.0,107.2 L 24.0,108.2 L 23.9,109.1 L 23.9,110.1 L 23.8,111.0 L 23.8,112.0 L 23.8,112.9 L 23.7,113.9 L 23.7,114.8 L 23.7,115.8 L 23.7,116.7 L 23.7,117.7 L 23.8,118.7 L 23.8,119.6 L 23.8,120.6 L 23.9,121.5 L 23.9,122.5 L 24.0,123.5 L 24.1,124.4 L 24.1,125.4 L 24.2,126.3 L 24.3,127.3 L 24.4,128.3 L 24.5,129.2 L 24.6,130.2 L 24.8,131.1 L 24.9,132.1 L 25.0,133.0 L 25.2,134.0 L 25.3,135.0 L 25.5,135.9 L 25.7,136.9 L 25.8,137.8 L 26.0,138.8 L 26.2,139.7 L 26.4,140.7 L 26.6,141.6 L 26.8,142.6 L 27.1,143.5 L 27.3,144.5 L 27.5,145.4 L 27.8,146.3 L 28.1,147.3 L 28.3,148.2 L 28.6,149.1 L 28.9,150.2 L 29.2,151.3 L 29.6,152.5 L 30.0,153.6 L 30.3,154.7 L 30.7,155.8 L 31.1,156.8 L 31.5,157.9 L 32.0,159.0 L 32.4,160.1 L 32.8,161.1 L 33.3,162.2 L 33.8,163.3 L 34.2,164.3 L 34.7,165.3 L 35.2,166.4 L 35.8,167.4 L 36.3,168.4 L 36.8,169.4 L 37.4,170.5 L 37.9,171.5 L 38.5,172.4 L 39.1,173.4 L 39.7,174.4 L 40.3,175.4 L 40.9,176.4 L 41.5,177.3 L 42.2,178.3 L 42.8,179.2 L 43.5,180.2 L 44.1,181.1 L 44.8,182.0 L 45.5,183.0 L 46.2,183.9 L 46.9,184.8 L 47.6,185.7 L 48.4,186.6 L 49.1,187.5 L 49.8,188.4 L 50.6,189.3 L 51.4,190.1 L 52.1,191.0 L 52.9,191.8 L 53.7,192.7 L 54.5,193.5 L 55.3,194.4 L 56.2,195.2 L 57.0,196.0 L 57.8,196.9 L 58.7,197.7 L 59.5,198.5 L 60.4,199.3 L 61.3,200.1 L 62.2,200.8 L 63.1,201.6 L 64.0,202.4 L 64.9,203.2 L 65.8,203.9 L 66.7,204.7 L 67.7,205.4 L 68.6,206.2 L 69.6,206.9 L 70.5,207.6 L 71.5,208.3 L 72.5,209.0 L 73.4,209.7 L 74.4,210.4 L 75.4,211.1 L 76.4,211.8 L 77.5,212.5 L 78.5,213.2 L 79.5,213.8 L 80.6,214.5 L 81.6,215.1 L 82.7,215.8 L 83.7,216.4 L 84.8,217.1 L 85.9,217.7 L 87.0,218.3 L 88.1,218.9 L 89.2,219.5 L 90.3,220.1 L 91.4,220.7 L 92.5,221.3 L 93.6,221.9 L 94.8,222.4 L 95.9,223.0 L 97.1,223.5 L 98.2,224.1 L 99.4,224.6 L 100.6,225.1 L 101.8,225.6 L 103.0,226.1 L 104.2,226.6 L 106.5,222.0 L 105.4,221.3 L 104.4,220.6 L 103.3,219.9 L 102.3,219.3 L 101.2,218.6 L 100.2,217.9 L 99.1,217.3 L 98.1,216.6 L 97.1,215.9 L 96.1,215.2 L 95.1,214.5 L 94.1,213.8 L 93.1,213.2 L 92.1,212.5 L 91.1,211.8 L 90.2,211.1 L 89.2,210.4 L 88.2,209.7 L 87.3,208.9 L 86.4,208.2 L 85.4,207.5 L 84.5,206.8 L 83.6,206.1 L 82.7,205.3 L 81.8,204.6 L 80.9,203.9 L 80.1,203.1 L 79.2,202.4 L 78.4,201.6 L 77.5,200.9 L 76.7,200.1 L 75.8,199.4 L 75.0,198.6 L 74.2,197.8 L 73.4,197.1 L 72.6,196.3 L 71.8,195.5 L 71.0,194.7 L 70.3,193.9 L 69.5,193.2 L 68.8,192.4 L 68.0,191.6 L 67.3,190.8 L 66.6,190.0 L 65.9,189.2 L 65.2,188.4 L 64.5,187.5 L 63.8,186.7 L 63.1,185.9 L 62.5,185.1 L 61.8,184.3 L 61.2,183.4 L 60.5,182.6 L 59.9,181.8 L 59.3,180.9 L 58.7,180.1 L 58.1,179.2 L 57.5,178.4 L 56.9,177.5 L 56.3,176.7 L 55.8,175.8 L 55.2,174.9 L 54.7,174.1 L 54.1,173.2 L 53.6,172.3 L 53.1,171.4 L 52.6,170.6 L 52.1,169.7 L 51.6,168.8 L 51.2,167.9 L 50.7,167.0 L 50.3,166.1 L 49.8,165.2 L 49.4,164.3 L 49.0,163.4 L 48.5,162.5 L 48.1,161.5 L 47.7,160.6 L 47.4,159.7 L 47.0,158.8 L 46.6,157.8 L 46.3,156.9 L 45.9,156.0 L 45.6,155.0 L 45.3,154.1 L 44.9,153.1 L 44.6,152.2 L 44.3,151.2 L 44.1,150.3 L 43.8,149.3 L 43.5,148.3 L 43.3,147.4 L 43.0,146.4 L 42.8,145.4 L 42.6,144.5 L 42.4,143.7 L 42.2,142.8 L 42.0,142.0 L 41.9,141.2 L 41.7,140.3 L 41.6,139.5 L 41.4,138.6 L 41.3,137.8 L 41.1,137.0 L 41.0,136.1 L 40.9,135.3 L 40.8,134.4 L 40.6,133.6 L 40.5,132.7 L 40.4,131.9 L 40.3,131.1 L 40.3,130.2 L 40.2,129.4 L 40.1,128.5 L 40.0,127.7 L 40.0,126.8 L 39.9,126.0 L 39.9,125.2 L 39.8,124.3 L 39.8,123.5 L 39.7,122.6 L 39.7,121.8 L 39.7,121.0 L 39.7,120.1 L 39.7,119.3 L 39.7,118.4 L 39.7,117.6 L 39.7,116.8 L 39.7,115.9 L 39.7,115.1 L 39.7,114.3 L 39.8,113.5 L 39.8,112.6 L 39.9,111.8 L 39.9,111.0 L 40.0,110.2 L 40.0,109.3 L 40.1,108.5 L 40.2,107.7 L 40.3,106.9 L 40.3,106.1 L 40.4,105.3 L 40.5,104.4 L 40.6,103.6 L 40.8,102.8 L 40.9,102.0 L 41.0,101.2 L 41.1,100.4 L 41.3,99.6 L 41.4,98.8 L 41.5,98.1 L 41.7,97.3 L 41.9,96.5 L 42.0,95.7 L 42.2,94.9 L 42.4,94.1 L 42.5,93.4 L 42.7,92.6 L 42.9,91.8 L 43.1,91.1 L 43.3,90.3 L 43.5,89.6 L 43.8,88.8 L 44.0,88.1 L 44.2,87.3 L 44.4,86.6 L 44.7,85.8 L 44.9,85.1 L 45.2,84.4 L 45.4,83.6 L 45.7,82.9 L 46.0,82.2 L 46.2,81.5 L 46.5,80.8 L 46.8,80.0 L 47.1,79.3 L 47.4,78.6 L 47.7,77.9 L 48.0,77.3 L 48.3,76.6 L 48.6,75.9 L 48.9,75.2 L 49.3,74.5 L 49.6,73.9 L 49.9,73.2 L 50.3,72.5 L 50.6,71.9 L 51.0,71.2 L 51.3,70.6 L 51.7,69.9 L 52.1,69.3 L 52.5,68.7 L 52.9,68.1 L 53.2,67.4 L 53.6,66.8 L 54.0,66.2 L 54.4,65.6 L 54.9,65.0 L 55.3,64.4 L 55.7,63.8 L 56.1,63.2 L 56.6,62.7 L 57.0,62.1 L 57.4,61.5 L 57.9,61.0 L 58.4,60.4 L 58.8,59.9 L 59.3,59.3 L 59.8,58.8 L 60.2,58.2 L 60.7,57.7 L 61.2,57.2 L 61.7,56.7 L 62.2,56.2 L 62.6,55.8 L 63.0,55.4 L 63.3,55.1 L 63.7,54.7 L 64.1,54.4 L 64.5,54.1 L 64.8,53.8 L 65.2,53.5 L 65.6,53.2 L 65.9,52.9 L 66.3,52.6 L 66.7,52.4 L 67.1,52.1 L 67.4,51.9 L 67.8,51.7 L 68.2,51.5 L 68.5,51.3 L 68.9,51.1 L 69.3,50.9 L 69.7,50.7 L 70.0,50.5 L 70.4,50.4 L 70.8,50.2 L 71.2,50.1 L 71.5,50.0 L 71.9,49.8 L 72.3,49.7 L 72.7,49.6 L 73.1,49.5 L 73.5,49.4 L 73.8,49.3 L 74.2,49.3 L 74.6,49.2 L 75.0,49.1 L 75.4,49.1 L 75.8,49.1 L 76.2,49.0 L 76.7,49.0 L 77.1,49.0 L 77.5,49.0 L 77.9,49.0 L 78.3,49.0 L 78.8,49.1 L 79.2,49.1 L 79.6,49.1 L 80.1,49.2 L 80.5,49.3 L 81.0,49.3 L 81.4,49.4 L 81.9,49.5 L 82.4,49.6 L 82.8,49.8 L 83.3,49.9 L 83.8,50.0 L 84.2,50.2 L 84.7,50.3 L 85.2,50.5 L 85.7,50.7 L 86.2,50.9 L 86.7,51.1 L 87.2,51.3 L 87.7,51.6 L 88.2,51.8 L 88.7,52.0 L 89.2,52.3 L 89.7,52.6 L 90.2,52.9 L 90.7,53.2 L 91.2,53.5 L 91.7,53.8 L 92.2,54.2 L 92.8,54.5 L 93.3,54.9 L 93.8,55.2 L 94.3,55.6 L 94.9,56.0 L 95.4,56.4 L 95.9,56.9 L 96.4,57.3 L 97.0,57.7 L 97.5,58.2 L 98.0,58.6 L 98.6,59.1 L 99.1,59.6 L 99.7,60.1 L 100.2,60.6 L 100.7,61.1 L 101.3,61.7 L 101.8,62.2 L 102.4,62.7 L 103.0,63.3 Z" fill="#FFFFFF"/>
</svg>